<svg width="116" height="64" viewBox="0 0 116 64" fill="none" xmlns="http://www.w3.org/2000/svg">
<path d="M31.0697 15L2.14258 29V36H114.143V1L65.9307 23L31.0697 15Z" fill="url(#paint0_linear_201_1558)"/>
<path d="M1.14258 29L30.5863 14.7544L66.0697 22.614L115.143 1" stroke="#4C56CC" stroke-linecap="round"/>
<path d="M21.5371 52.2295C21.5371 54.1299 22.0703 55.5312 23.1367 56.4336C24.21 57.3359 25.5498 57.7871 27.1562 57.7871C28.7559 57.7871 30.0889 57.3359 31.1553 56.4336C32.2217 55.5312 32.7549 54.1299 32.7549 52.2295V42.5703H30.0376V52.3833C30.0376 53.5522 29.7744 54.3896 29.248 54.8955C28.7217 55.3945 28.0278 55.644 27.1665 55.644C26.2983 55.644 25.6011 55.3945 25.0747 54.8955C24.5552 54.3896 24.2954 53.5522 24.2954 52.3833V42.5703H21.5371V52.2295ZM35.4722 61.7964H38.1484V56.3721C38.4355 56.7822 38.8423 57.1069 39.3687 57.3462C39.9019 57.5854 40.5171 57.7051 41.2144 57.7051C42.5474 57.7051 43.6206 57.2163 44.4341 56.2388C45.2476 55.2544 45.6543 53.9624 45.6543 52.3628V52.0347C45.6543 50.4282 45.2441 49.1396 44.4238 48.1689C43.6035 47.1914 42.5166 46.7026 41.1631 46.7026C40.4658 46.7026 39.8403 46.8462 39.2866 47.1333C38.7329 47.4136 38.333 47.7656 38.0869 48.1895H38.0356L37.9741 46.918H35.4722V61.7964ZM38.1484 54.0957V50.2915C38.3262 49.8813 38.6133 49.5225 39.0098 49.2148C39.4131 48.9004 39.9053 48.7432 40.4863 48.7432C41.3203 48.7432 41.9355 49.0337 42.332 49.6147C42.7285 50.189 42.9268 50.9614 42.9268 51.9321V52.4653C42.9268 53.436 42.7285 54.2153 42.332 54.8032C41.9355 55.3843 41.3237 55.6748 40.4966 55.6748C39.9292 55.6748 39.437 55.5176 39.02 55.2031C38.6099 54.8818 38.3193 54.5127 38.1484 54.0957ZM52.1963 53.3472C52.1963 54.7759 52.7158 55.873 53.7549 56.6387C54.8008 57.4043 56.1611 57.7871 57.8359 57.7871C59.5176 57.7871 60.8608 57.3975 61.8657 56.6182C62.8774 55.832 63.3833 54.7622 63.3833 53.4087C63.3833 52.1167 62.9902 51.1187 62.2041 50.4146C61.418 49.7036 60.2559 49.1294 58.7178 48.6919C57.2686 48.2886 56.3218 47.9331 55.8774 47.6255C55.4331 47.3179 55.2109 46.8838 55.2109 46.3232C55.2109 45.7354 55.416 45.2705 55.8262 44.9287C56.2363 44.5869 56.8755 44.416 57.7437 44.416C58.6118 44.416 59.2646 44.6245 59.7021 45.0415C60.1465 45.4517 60.3687 46.002 60.3687 46.6924V46.918H63.0859V46.6411C63.0859 45.3286 62.5972 44.2759 61.6196 43.4829C60.6489 42.6831 59.3535 42.2832 57.7334 42.2832C56.1064 42.2832 54.8179 42.6729 53.8677 43.4521C52.9175 44.2246 52.4424 45.2432 52.4424 46.5078C52.4492 47.7109 52.8286 48.6509 53.5806 49.3276C54.3394 50.0044 55.5015 50.5649 57.0669 51.0093C58.5093 51.4126 59.4629 51.7886 59.9277 52.1372C60.3926 52.4858 60.625 52.9678 60.625 53.583C60.625 54.2119 60.3823 54.7178 59.897 55.1006C59.4185 55.4834 58.728 55.6748 57.8257 55.6748C56.9233 55.6748 56.2192 55.4766 55.7134 55.0801C55.2075 54.6836 54.9546 54.0889 54.9546 53.2959V53.0396H52.1963V53.3472ZM65.3931 57.5H68.0693V50.353C68.2676 49.8745 68.5513 49.4951 68.9204 49.2148C69.2896 48.9346 69.7271 48.7944 70.2329 48.7944C70.814 48.7944 71.2686 48.9517 71.5967 49.2661C71.9248 49.5806 72.0889 50.1069 72.0889 50.8452V57.5H74.7549V50.6812C74.7549 49.2661 74.4336 48.251 73.791 47.6357C73.1553 47.0137 72.335 46.7026 71.3301 46.7026C70.5781 46.7026 69.9287 46.8496 69.3818 47.1436C68.835 47.4375 68.3975 47.8203 68.0693 48.292V41.9038H65.3931V57.5ZM76.7646 52.3628C76.7646 54.0034 77.2534 55.3193 78.231 56.3105C79.2153 57.3018 80.5073 57.7974 82.1069 57.7974C83.7065 57.7974 84.9951 57.3018 85.9727 56.3105C86.9502 55.3193 87.439 54.0034 87.439 52.3628V52.0347C87.439 50.4009 86.9502 49.0884 85.9727 48.0972C84.9951 47.106 83.7065 46.6104 82.1069 46.6104C80.5073 46.6104 79.2153 47.106 78.231 48.0972C77.2534 49.0884 76.7646 50.4009 76.7646 52.0347V52.3628ZM79.4922 51.9321C79.4922 50.9272 79.7178 50.1309 80.1689 49.543C80.6201 48.9551 81.2661 48.6611 82.1069 48.6611C82.9409 48.6611 83.5835 48.9551 84.0347 49.543C84.4858 50.1309 84.7114 50.9272 84.7114 51.9321V52.4756C84.7114 53.4805 84.4893 54.2769 84.0449 54.8647C83.6006 55.4526 82.9546 55.7466 82.1069 55.7466C81.2593 55.7466 80.6099 55.4526 80.1587 54.8647C79.7144 54.2769 79.4922 53.4805 79.4922 52.4756V51.9321ZM88.1978 48.8867H94.668V46.918H88.1978V48.8867ZM89.8896 54.4956C89.8896 55.6372 90.1665 56.4712 90.7202 56.9976C91.2739 57.5239 92.019 57.7871 92.9556 57.7871C93.3179 57.7871 93.646 57.7563 93.9399 57.6948C94.2407 57.6333 94.4731 57.5649 94.6372 57.4897V55.521C94.48 55.5825 94.3159 55.6338 94.145 55.6748C93.981 55.709 93.8169 55.7261 93.6528 55.7261C93.2905 55.7261 93.0137 55.6304 92.8223 55.439C92.6377 55.2476 92.5454 54.8887 92.5454 54.3623V44.2109H89.9102V47.605L89.8896 47.8818V54.4956Z" fill="#263238"/>
<defs>
<linearGradient id="paint0_linear_201_1558" x1="58.1426" y1="1" x2="57.9741" y2="35.501" gradientUnits="userSpaceOnUse">
<stop stop-color="#7782FF"/>
<stop offset="1" stop-color="#7782FF" stop-opacity="0"/>
</linearGradient>
</defs>
</svg>
