<svg width="109" height="39" viewBox="0 0 109 39" fill="none" xmlns="http://www.w3.org/2000/svg">
<path d="M9.47258 31.27C8.33258 31.27 7.19258 31.23 6.05258 31.15C4.93258 31.09 3.76258 30.93 2.54258 30.67V10.51C3.50258 10.33 4.55258 10.2 5.69258 10.12C6.83258 10.02 7.89258 9.97 8.87258 9.97C10.1926 9.97 11.4026 10.07 12.5026 10.27C13.6226 10.45 14.5826 10.77 15.3826 11.23C16.1826 11.69 16.8026 12.3 17.2426 13.06C17.7026 13.8 17.9326 14.72 17.9326 15.82C17.9326 17.48 17.1326 18.79 15.5326 19.75C16.8526 20.25 17.7526 20.93 18.2326 21.79C18.7126 22.65 18.9526 23.62 18.9526 24.7C18.9526 26.88 18.1526 28.52 16.5526 29.62C14.9726 30.72 12.6126 31.27 9.47258 31.27ZM7.10258 21.94V27.31C7.44258 27.35 7.81258 27.38 8.21258 27.4C8.61258 27.42 9.05258 27.43 9.53258 27.43C10.9326 27.43 12.0626 27.23 12.9226 26.83C13.7826 26.43 14.2126 25.69 14.2126 24.61C14.2126 23.65 13.8526 22.97 13.1326 22.57C12.4126 22.15 11.3826 21.94 10.0426 21.94H7.10258ZM7.10258 18.37H9.38258C10.8226 18.37 11.8526 18.19 12.4726 17.83C13.0926 17.45 13.4026 16.85 13.4026 16.03C13.4026 15.19 13.0826 14.6 12.4426 14.26C11.8026 13.92 10.8626 13.75 9.62258 13.75C9.22258 13.75 8.79258 13.76 8.33258 13.78C7.87258 13.78 7.46258 13.8 7.10258 13.84V18.37ZM26.8688 31H22.3988V15.22H26.8688V31ZM27.2888 10.66C27.2888 11.48 27.0188 12.13 26.4788 12.61C25.9588 13.07 25.3388 13.3 24.6188 13.3C23.8988 13.3 23.2688 13.07 22.7288 12.61C22.2088 12.13 21.9488 11.48 21.9488 10.66C21.9488 9.84 22.2088 9.2 22.7288 8.74C23.2688 8.26 23.8988 8.02 24.6188 8.02C25.3388 8.02 25.9588 8.26 26.4788 8.74C27.0188 9.2 27.2888 9.84 27.2888 10.66ZM30.9207 11.29L35.3907 10.57V15.22H40.7607V18.94H35.3907V24.49C35.3907 25.43 35.5507 26.18 35.8707 26.74C36.2107 27.3 36.8807 27.58 37.8807 27.58C38.3607 27.58 38.8507 27.54 39.3507 27.46C39.8707 27.36 40.3407 27.23 40.7607 27.07L41.3907 30.55C40.8507 30.77 40.2507 30.96 39.5907 31.12C38.9307 31.28 38.1207 31.36 37.1607 31.36C35.9407 31.36 34.9307 31.2 34.1307 30.88C33.3307 30.54 32.6907 30.08 32.2107 29.5C31.7307 28.9 31.3907 28.18 31.1907 27.34C31.0107 26.5 30.9207 25.57 30.9207 24.55V11.29Z" fill="#263238"/>
<path d="M82.2726 27.88C82.7126 27.88 83.1326 27.87 83.5326 27.85C83.9326 27.83 84.2526 27.8 84.4926 27.76V24.37C84.3126 24.33 84.0426 24.29 83.6826 24.25C83.3226 24.21 82.9926 24.19 82.6926 24.19C82.2726 24.19 81.8726 24.22 81.4926 24.28C81.1326 24.32 80.8126 24.41 80.5326 24.55C80.2526 24.69 80.0326 24.88 79.8726 25.12C79.7126 25.36 79.6326 25.66 79.6326 26.02C79.6326 26.72 79.8626 27.21 80.3226 27.49C80.8026 27.75 81.4526 27.88 82.2726 27.88ZM81.9126 14.8C83.2326 14.8 84.3326 14.95 85.2126 15.25C86.0926 15.55 86.7926 15.98 87.3126 16.54C87.8526 17.1 88.2326 17.78 88.4526 18.58C88.6726 19.38 88.7826 20.27 88.7826 21.25V30.55C88.1426 30.69 87.2526 30.85 86.1126 31.03C84.9726 31.23 83.5926 31.33 81.9726 31.33C80.9526 31.33 80.0226 31.24 79.1826 31.06C78.3626 30.88 77.6526 30.59 77.0526 30.19C76.4526 29.77 75.9926 29.23 75.6726 28.57C75.3526 27.91 75.1926 27.1 75.1926 26.14C75.1926 25.22 75.3726 24.44 75.7326 23.8C76.1126 23.16 76.6126 22.65 77.2326 22.27C77.8526 21.89 78.5626 21.62 79.3626 21.46C80.1626 21.28 80.9926 21.19 81.8526 21.19C82.4326 21.19 82.9426 21.22 83.3826 21.28C83.8426 21.32 84.2126 21.38 84.4926 21.46V21.04C84.4926 20.28 84.2626 19.67 83.8026 19.21C83.3426 18.75 82.5426 18.52 81.4026 18.52C80.6426 18.52 79.8926 18.58 79.1526 18.7C78.4126 18.8 77.7726 18.95 77.2326 19.15L76.6626 15.55C76.9226 15.47 77.2426 15.39 77.6226 15.31C78.0226 15.21 78.4526 15.13 78.9126 15.07C79.3726 14.99 79.8526 14.93 80.3526 14.89C80.8726 14.83 81.3926 14.8 81.9126 14.8ZM99.0946 20.02L102.215 15.22H106.835L101.435 22.81C102.635 24.31 103.725 25.77 104.705 27.19C105.685 28.61 106.465 29.88 107.045 31H102.245C102.085 30.7 101.885 30.33 101.645 29.89C101.405 29.43 101.135 28.96 100.835 28.48C100.535 27.98 100.215 27.49 99.8746 27.01C99.5546 26.51 99.2346 26.06 98.9146 25.66C98.6146 26.04 98.3046 26.46 97.9846 26.92C97.6846 27.38 97.3946 27.85 97.1146 28.33C96.8346 28.79 96.5546 29.25 96.2746 29.71C96.0146 30.17 95.7846 30.6 95.5846 31H91.0246C91.2646 30.5 91.5946 29.91 92.0146 29.23C92.4346 28.55 92.8846 27.85 93.3646 27.13C93.8646 26.39 94.3846 25.66 94.9246 24.94C95.4646 24.2 95.9946 23.51 96.5146 22.87C95.6146 21.61 94.7146 20.34 93.8146 19.06C92.9146 17.76 92.0246 16.48 91.1446 15.22H95.9746L99.0946 20.02Z" fill="#263238"/>
<path d="M52.6426 11L60.8698 29.75H44.4153L52.6426 11Z" fill="#FEBA66"/>
<path d="M62.6426 11L70.8698 29.75H54.4153L62.6426 11Z" fill="#EDA54C"/>
</svg>
