<svg width="119" height="46" viewBox="0 0 119 46" fill="none" xmlns="http://www.w3.org/2000/svg">
<path d="M45.3631 36.3478C42.7891 36.3478 40.7484 35.6522 39.241 34.2608C37.7569 32.8694 37.0148 30.9678 37.0148 28.5561V10.6072H42.2325V28.5213C42.2325 29.588 42.4992 30.4113 43.0326 30.991C43.5891 31.5476 44.366 31.8258 45.3631 31.8258C46.3371 31.8258 47.1024 31.5476 47.6589 30.991C48.2155 30.4113 48.4937 29.588 48.4937 28.5213V10.6072H53.7114V28.5561C53.7114 30.9446 52.9578 32.8462 51.4504 34.2608C49.9663 35.6522 47.9372 36.3478 45.3631 36.3478ZM57.872 36V10.6072H63.9593L70.5336 30.2605C70.464 29.4025 70.3829 28.417 70.2901 27.3038C70.1973 26.1675 70.1162 25.0428 70.0466 23.9297C70.0002 22.7934 69.977 21.8311 69.977 21.0426V10.6072H74.5686V36H68.4813L61.9766 16.3467C62.0461 17.0888 62.1157 17.97 62.1853 18.9903C62.2549 20.0107 62.3128 21.0426 62.3592 22.0862C62.4288 23.1297 62.4636 24.0573 62.4636 24.8689V36H57.872ZM79.2509 36V31.1302L88.5732 15.4771H79.5292V10.6072H94.5214V15.4771L85.1643 31.1302H94.904V36H79.2509ZM107.935 36.3478C106.242 36.3478 104.769 36.0348 103.517 35.4087C102.265 34.7593 101.291 33.8665 100.595 32.7302C99.9226 31.5708 99.5864 30.2258 99.5864 28.6952V17.912C99.5864 16.3815 99.9226 15.0481 100.595 13.9118C101.291 12.7523 102.265 11.8595 103.517 11.2334C104.769 10.584 106.242 10.2594 107.935 10.2594C109.651 10.2594 111.123 10.584 112.352 11.2334C113.605 11.8595 114.567 12.7523 115.239 13.9118C115.935 15.0481 116.283 16.3815 116.283 17.912V28.6952C116.283 30.2258 115.935 31.5708 115.239 32.7302C114.567 33.8665 113.605 34.7593 112.352 35.4087C111.123 36.0348 109.651 36.3478 107.935 36.3478ZM107.935 31.8258C108.978 31.8258 109.755 31.5592 110.265 31.0258C110.799 30.4692 111.065 29.6924 111.065 28.6952V17.912C111.065 16.8916 110.81 16.1148 110.3 15.5814C109.79 15.0481 109.001 14.7814 107.935 14.7814C106.868 14.7814 106.079 15.0481 105.569 15.5814C105.059 16.1148 104.804 16.8916 104.804 17.912V28.6952C104.804 29.6924 105.059 30.4692 105.569 31.0258C106.103 31.5592 106.891 31.8258 107.935 31.8258Z" fill="#303030"/>
<path d="M15.7036 16.2946L12.1095 10.0696H6.96484L15.7036 25.2057L24.4424 10.0696H19.2977L15.7036 16.2946Z" fill="#FF6B62"/>
<path d="M25.6399 10.0697L15.7042 27.2784L5.76849 10.0697H0.142578L15.7042 37.0243L31.2658 10.0697H25.6399Z" fill="#5282FF"/>
</svg>
