<svg width="99" height="51" viewBox="0 0 99 51" fill="none" xmlns="http://www.w3.org/2000/svg">
<path d="M49.1826 41.4453C50.0485 41.4453 50.4814 40.734 50.4814 39.3115C50.4814 38.8662 50.4567 38.4271 50.4072 37.9941C50.3454 37.4375 50.3145 35.5697 50.3145 32.3906C50.3145 29.5456 50.2897 26.7067 50.2402 23.874C50.1908 21.029 50.0547 18.1839 49.832 15.3389C49.8197 15.2646 49.8135 15.1842 49.8135 15.0977C49.8135 14.8132 49.7702 14.541 49.6836 14.2812C49.4609 13.7741 49.096 13.5205 48.5889 13.5205C48.3786 13.5205 48.0755 13.6504 47.6797 13.9102C46.987 14.2812 46.3932 14.776 45.8984 15.3945C45.5768 15.8398 45.2367 16.2666 44.8779 16.6748L44.2285 17.4912C44.1172 17.6396 44.012 17.7139 43.9131 17.7139C43.8141 17.7139 43.7028 17.652 43.5791 17.5283L43.0596 17.0088C42.54 16.5387 42.0947 16.0007 41.7236 15.3945C41.3896 14.8626 40.9567 14.4297 40.4248 14.0957C40.1032 13.8854 39.7939 13.7803 39.4971 13.7803C38.7673 13.7803 38.359 14.2256 38.2725 15.1162C38.2106 16.6006 38.1797 18.3262 38.1797 20.293C38.1797 26.5273 38.3838 31.6484 38.792 35.6562L39.2373 39.8125C39.3115 40.5794 39.7383 40.9691 40.5176 40.9814C41.2598 40.8949 41.6494 40.4681 41.6865 39.7012C41.6865 39.1569 41.4453 36.3551 40.9629 31.2959C40.8145 29.0941 40.7402 26.4593 40.7402 23.3916C40.7402 21.4495 40.734 19.9899 40.7217 19.0127C40.7093 18.9756 40.7031 18.8333 40.7031 18.5859C40.7155 18.5241 40.7773 18.4622 40.8887 18.4004C41.6432 19.1055 42.1689 19.6807 42.4658 20.126C42.8864 20.695 43.3255 20.9795 43.7832 20.9795C44.2038 20.9795 44.6367 20.7383 45.082 20.2559C45.9232 19.3034 46.6777 18.4313 47.3457 17.6396C47.6549 21.2764 47.8096 24.5544 47.8096 27.4736C47.7601 29.1436 47.7354 30.8135 47.7354 32.4834C47.7354 34.9079 47.791 37.3324 47.9023 39.7568C47.9766 40.8083 48.4033 41.3711 49.1826 41.4453ZM55.7324 41.1113C56.4993 41.0866 56.9199 40.598 56.9941 39.6455L57.0127 39.1816C57.0127 38.8105 56.988 38.4333 56.9385 38.0498C56.6169 34.0791 56.4561 26.4531 56.4561 15.1719L56.4746 15.042C56.4746 14.8441 56.4437 14.64 56.3818 14.4297C56.2334 13.8112 55.8623 13.502 55.2686 13.502C54.749 13.502 54.3717 13.7432 54.1367 14.2256C53.9017 14.7699 53.7842 17.4665 53.7842 22.3154C53.7842 27.3623 54.0192 33.1452 54.4893 39.6641C54.6006 40.5671 55.015 41.0495 55.7324 41.1113ZM63.3398 41.0557L63.5996 41.0371C64.2428 40.8763 64.5645 40.4557 64.5645 39.7754L64.5273 39.4043C64.1934 37.4251 64.0016 35.4336 63.9521 33.4297C63.9274 32.6257 63.8903 31.8216 63.8408 31.0176C63.7542 29.7064 63.7109 28.3952 63.7109 27.084L63.748 24.876C63.748 23.8369 63.68 22.0928 63.5439 19.6436C63.5439 19.4456 63.5872 19.2848 63.6738 19.1611L64.6572 20.46C65.82 22.0309 67.0322 23.5339 68.2939 24.9688C68.6898 25.4264 68.8877 25.9583 68.8877 26.5645L68.9805 30.7764C69.0547 32.6813 69.0918 34.5801 69.0918 36.4727C69.0918 37.9941 69.0794 38.9281 69.0547 39.2744C69.0547 39.5465 69.098 39.8187 69.1846 40.0908C69.3949 40.6722 69.7907 40.9629 70.3721 40.9629C71.1761 40.8887 71.5781 40.3939 71.5781 39.4785C71.5781 35.5078 71.541 32.0999 71.4668 29.2549C71.3926 26.4098 71.2008 23.571 70.8916 20.7383C70.8916 20.7012 70.8854 20.6702 70.873 20.6455C70.6751 19.0127 70.5762 17.751 70.5762 16.8604C70.5762 16.5635 70.6195 15.8955 70.7061 14.8564C70.7061 14.5225 70.5947 14.2318 70.3721 13.9844C70.1618 13.7246 69.8587 13.5947 69.4629 13.5947C69.1536 13.5947 68.8877 13.7061 68.665 13.9287C68.2692 14.3245 68.0713 15.2832 68.0713 16.8047C68.0713 17.25 68.1455 18.2705 68.2939 19.8662L68.3682 20.9053L68.2197 20.9795L63.2285 14.4111C62.9811 14.0895 62.6781 13.9287 62.3193 13.9287C62.1833 13.9287 62.041 13.9473 61.8926 13.9844C61.373 14.1699 61.07 14.5348 60.9834 15.0791C60.9463 15.4502 60.9277 15.8708 60.9277 16.3408C61.1009 19.2106 61.1875 22.3525 61.1875 25.7666C61.1999 29.2549 61.3359 32.737 61.5957 36.2129C61.5957 37.4004 61.7565 38.6374 62.0781 39.9238C62.3132 40.6784 62.7337 41.0557 63.3398 41.0557ZM81.1523 40.9629C82.0059 40.8516 82.4326 40.2021 82.4326 39.0146L82.4141 38.3467C82.3027 37.32 82.2471 36.2871 82.2471 35.248L82.2842 32.1865C82.2842 31.4938 82.2285 28.9642 82.1172 24.5977C82.0553 23.5091 82.0244 22.4268 82.0244 21.3506C82.0244 19.8167 82.0863 18.2829 82.21 16.749C82.2594 16.279 82.4264 16.0439 82.7109 16.0439C83.9108 16.0439 85.0179 15.9635 86.0322 15.8027C86.6383 15.5306 86.9414 15.1286 86.9414 14.5967C86.9414 14.4235 86.9043 14.2441 86.8301 14.0586C86.5456 13.4896 86.1374 13.2051 85.6055 13.2051C85.457 13.2051 85.2962 13.2298 85.123 13.2793C83.2799 13.4648 81.3688 13.5576 79.3896 13.5576C78.5485 13.5576 77.6888 13.5391 76.8105 13.502C75.7096 13.502 75.1097 13.9163 75.0107 14.7451C75.0107 15.6357 75.5612 16.1429 76.6621 16.2666C77.2806 16.2913 77.8001 16.3037 78.2207 16.3037L78.9814 16.2852C79.2907 16.2852 79.4453 16.4212 79.4453 16.6934L79.4268 16.8418C79.3154 18.487 79.2598 20.0456 79.2598 21.5176C79.2598 22.4948 79.2845 23.4349 79.334 24.3379C79.4577 27.3932 79.5195 30.3867 79.5195 33.3184C79.5072 34.5182 79.4948 35.2295 79.4824 35.4521C79.4948 36.7881 79.5566 38.1302 79.668 39.4785C79.7174 39.9609 79.8721 40.332 80.1318 40.5918C80.3916 40.8392 80.7318 40.9629 81.1523 40.9629ZM92.0625 41.1113C92.8294 41.0866 93.25 40.598 93.3242 39.6455L93.3428 39.1816C93.3428 38.8105 93.318 38.4333 93.2686 38.0498C92.9469 34.0791 92.7861 26.4531 92.7861 15.1719L92.8047 15.042C92.8047 14.8441 92.7738 14.64 92.7119 14.4297C92.5635 13.8112 92.1924 13.502 91.5986 13.502C91.0791 13.502 90.7018 13.7432 90.4668 14.2256C90.2318 14.7699 90.1143 17.4665 90.1143 22.3154C90.1143 27.3623 90.3493 33.1452 90.8193 39.6641C90.9307 40.5671 91.3451 41.0495 92.0625 41.1113Z" fill="#303030"/>
<path d="M9.16049 25.0756C9.26092 24.9689 9.38139 24.8831 9.51501 24.823C9.64862 24.7628 9.79278 24.7296 9.93924 24.7252C10.0857 24.7208 10.2316 24.7453 10.3686 24.7973C10.5056 24.8493 10.631 24.9277 10.7376 25.0282C15.8713 29.8642 21.0225 32.8065 27.0842 34.3063C27.9021 32.0751 27.9746 29.6195 27.2683 27.2238C26.3312 24.0451 24.1489 21.2757 20.959 19.2154C18.1115 17.3761 15.2654 16.8971 12.5121 16.4341C9.03847 15.8499 5.7573 15.2977 2.62604 11.9823C2.27742 11.6156 1.80261 11.4685 1.34871 11.5877C0.829972 11.7271 0.482054 12.1371 0.315416 12.8148C-0.0750339 14.401 0.175969 18.8466 1.27411 23.5396C3.03741 31.0795 5.85143 34.8947 7.90199 36.7682C10.5515 39.1869 14.0111 40.5263 17.4492 40.5263C18.0972 40.5273 18.7444 40.4797 19.3854 40.384C22.2935 39.9434 24.7143 38.4827 26.0788 36.3575C19.8393 34.7344 14.5089 31.6477 9.20581 26.6548C9.09895 26.5542 9.013 26.4335 8.95288 26.2997C8.89275 26.1658 8.85964 26.0213 8.85543 25.8746C8.85122 25.7279 8.87599 25.5818 8.92834 25.4447C8.98069 25.3076 9.05958 25.1822 9.16049 25.0756ZM30.5013 34.9895C29.3279 34.809 28.1914 34.5824 27.0849 34.3084C26.8574 34.9294 26.5744 35.5287 26.2392 36.0988C26.1883 36.186 26.1346 36.2725 26.0795 36.3575C27.4253 36.7059 28.7881 36.9852 30.1625 37.1942C30.3087 37.2199 30.4586 37.2161 30.6034 37.1832C30.7482 37.1502 30.8849 37.0886 31.0056 37.0021C31.1263 36.9156 31.2285 36.8059 31.3062 36.6793C31.3839 36.5528 31.4356 36.412 31.4582 36.2653C31.4808 36.1185 31.4738 35.9687 31.4378 35.8247C31.4018 35.6806 31.3373 35.5452 31.2483 35.4264C31.1592 35.3076 31.0473 35.2078 30.9192 35.1327C30.7911 35.0577 30.6492 35.009 30.502 34.9895H30.5013Z" fill="#FF69B1"/>
</svg>
