<svg width="122" height="38" viewBox="0 0 122 38" fill="none" xmlns="http://www.w3.org/2000/svg">
<path d="M61.3084 30.5489C61.3084 30.5677 61.3084 30.6052 61.3084 30.6616C61.3084 30.6992 61.299 30.7368 61.2802 30.7744C61.205 30.9248 61.0546 31 60.829 31C60.4155 31 60.0019 31 59.5884 31C59.1936 31 58.7894 31 58.3759 31H56.5713C56.045 31 55.6502 30.9154 55.387 30.7462C55.1427 30.577 54.8795 30.2857 54.5975 29.8721C53.5261 28.3307 52.4546 26.7987 51.3831 25.2761C50.3116 23.7346 49.2308 22.1932 48.1405 20.6518L47.7739 20.9338C47.7927 22.3436 47.8021 23.7534 47.8021 25.1633C47.8021 26.5731 47.8021 27.9736 47.8021 29.3646C47.8021 29.5338 47.8397 29.703 47.9149 29.8721C48.0089 30.0225 48.1499 30.0977 48.3379 30.0977C48.5822 30.0977 48.8266 30.0883 49.071 30.0695C49.3153 30.0507 49.5597 30.0413 49.8041 30.0413C49.9357 30.0413 50.0297 30.0977 50.0861 30.2105C50.1612 30.3233 50.1988 30.4361 50.1988 30.5489C50.1988 30.6428 50.1612 30.7556 50.0861 30.8872C50.0109 31 49.9169 31.0564 49.8041 31.0564C49.3529 31.0564 48.9018 31.0376 48.4506 31C48.0183 30.9812 47.5859 30.9718 47.1536 30.9718C46.5145 30.9718 45.8753 30.9718 45.2362 30.9718C44.6159 30.953 43.9956 30.9624 43.3752 31C43.1309 31.0188 42.8865 31.0282 42.6421 31.0282C42.3978 31.047 42.144 31.0564 41.8808 31.0564C41.7116 31.0564 41.5894 31 41.5143 30.8872C41.4391 30.7744 41.4015 30.6428 41.4015 30.4925C41.4015 30.1917 41.5612 30.0413 41.8808 30.0413C42.1064 30.0413 42.3226 30.0507 42.5293 30.0695C42.7549 30.0883 42.9711 30.0977 43.1779 30.0977C43.5538 30.0977 43.7794 29.9943 43.8546 29.7875C43.9298 29.5808 43.9674 29.327 43.9674 29.0262V12.8131C43.9674 12.174 43.911 11.751 43.7982 11.5443C43.7042 11.3187 43.5162 11.2059 43.2343 11.2059C42.9523 11.1871 42.5387 11.1777 41.9936 11.1777C41.8808 11.1777 41.7586 11.1495 41.627 11.0931C41.5143 11.0179 41.4579 10.9145 41.4579 10.783C41.4579 10.6514 41.4861 10.5292 41.5425 10.4164C41.5988 10.3036 41.7022 10.2472 41.8526 10.2472C42.2662 10.2472 42.6703 10.266 43.0651 10.3036C43.4786 10.3224 43.8922 10.3318 44.3057 10.3318C44.9637 10.3318 45.6216 10.3318 46.2795 10.3318C46.9374 10.3318 47.5859 10.3318 48.2251 10.3318C48.4882 10.3318 48.7514 10.3224 49.0146 10.3036C49.2965 10.266 49.5691 10.2472 49.8323 10.2472C49.9451 10.2472 50.0297 10.3036 50.0861 10.4164C50.1612 10.5104 50.1988 10.6044 50.1988 10.6984C50.1988 10.7923 50.1612 10.8957 50.0861 11.0085C50.0297 11.1213 49.9451 11.1777 49.8323 11.1777C49.5879 11.1777 49.3435 11.1777 49.0992 11.1777C48.8548 11.1589 48.6104 11.1495 48.3661 11.1495C48.1781 11.1495 48.0371 11.2247 47.9431 11.3751C47.8491 11.5255 47.8021 11.6852 47.8021 11.8544C47.8021 12.5311 47.7927 13.2173 47.7739 13.9128C47.7739 14.5895 47.7739 15.2662 47.7739 15.943V19.7495C49.1086 18.4713 50.3962 17.1742 51.6369 15.8584C52.8963 14.5425 54.09 13.1609 55.2179 11.7134C55.4246 11.4691 55.5656 11.1777 55.6408 10.8393C55.716 10.5762 55.7912 10.4164 55.8664 10.36C55.9416 10.3036 56.1108 10.2754 56.3739 10.2754L57.2198 10.3036C57.6522 10.3036 58.0845 10.2942 58.5169 10.2754C58.9492 10.2566 59.3816 10.2472 59.8139 10.2472C60.1335 10.2472 60.2933 10.407 60.2933 10.7266C60.2933 10.9709 60.2181 11.1213 60.0677 11.1777C59.9173 11.2153 59.7481 11.2341 59.5602 11.2341C59.1842 11.2341 58.8176 11.3187 58.4605 11.4879C58.1221 11.6383 57.812 11.845 57.53 12.1082L50.8192 18.5089C52.1538 20.3886 53.5167 22.2402 54.9077 24.0636C56.3175 25.887 57.7368 27.6916 59.1654 29.4774C59.4286 29.7969 59.7293 29.9943 60.0677 30.0695C60.4061 30.1447 60.6974 30.2011 60.9418 30.2387C61.1862 30.2575 61.3084 30.3609 61.3084 30.5489ZM73.7059 23.5843C73.7059 22.9639 73.6589 22.259 73.5649 21.4695C73.4897 20.6612 73.3205 19.8811 73.0574 19.1292C72.7942 18.3773 72.4088 17.7569 71.9013 17.2682C71.4125 16.7607 70.7452 16.5069 69.8993 16.5069C69.1286 16.5069 68.5083 16.7513 68.0383 17.24C67.5684 17.7287 67.2018 18.3397 66.9387 19.0728C66.6943 19.8059 66.5251 20.5672 66.4311 21.3567C66.3371 22.1274 66.2901 22.7948 66.2901 23.3587C66.2901 23.979 66.3277 24.6933 66.4029 25.5016C66.4969 26.2911 66.6755 27.0619 66.9387 27.8138C67.2018 28.5657 67.5872 29.186 68.0947 29.6748C68.6023 30.1635 69.279 30.4079 70.1249 30.4079C70.9144 30.4079 71.5441 30.1729 72.0141 29.703C72.5028 29.2142 72.8694 28.6127 73.1137 27.8984C73.3581 27.1652 73.5179 26.4133 73.5931 25.6426C73.6683 24.8531 73.7059 24.167 73.7059 23.5843ZM77.5406 23.7252C77.5406 25.1727 77.2117 26.4603 76.5537 27.5882C75.8958 28.6973 74.9935 29.5714 73.8469 30.2105C72.719 30.8496 71.4313 31.1692 69.9839 31.1692C68.5365 31.1692 67.2582 30.8308 66.1492 30.1541C65.0401 29.4774 64.166 28.5657 63.5269 27.419C62.9065 26.2723 62.5964 24.9847 62.5964 23.5561C62.5964 22.071 62.9065 20.7458 63.5269 19.5803C64.1472 18.3961 65.0213 17.4656 66.1492 16.7889C67.277 16.0933 68.5929 15.7456 70.0967 15.7456C71.7509 15.7456 73.1231 16.0839 74.2134 16.7607C75.3225 17.4186 76.1496 18.3491 76.6947 19.5521C77.2587 20.7364 77.5406 22.1274 77.5406 23.7252ZM89.2738 29.6466C89.2738 29.9097 89.1328 30.1447 88.8508 30.3515C88.5877 30.5395 88.2493 30.6992 87.8357 30.8308C87.441 30.9436 87.0368 31.0282 86.6233 31.0846C86.2097 31.141 85.862 31.1692 85.58 31.1692C84.1702 31.1692 83.1927 30.8872 82.6475 30.3233C82.1024 29.7405 81.8298 28.7819 81.8298 27.4472C81.8298 25.8306 81.8392 24.214 81.858 22.5974C81.8768 20.9808 81.8862 19.3642 81.8862 17.7475H80.5892C80.4012 17.7475 80.2414 17.8133 80.1098 17.9449C79.9783 18.0577 79.8561 18.1141 79.7433 18.1141C79.5553 18.1141 79.4613 18.0201 79.4613 17.8321C79.4613 17.7569 79.4989 17.616 79.5741 17.4092C79.6493 17.2024 79.7057 17.0708 79.7433 17.0144C79.7997 16.9016 79.8561 16.8358 79.9125 16.817C79.9689 16.7983 80.0534 16.7889 80.1662 16.7889H81.9144V13.7718C82.3844 13.5086 82.9013 13.1233 83.4652 12.6157C84.0292 12.1082 84.4615 11.6383 84.7623 11.2059C84.8187 11.1119 84.8939 11.0179 84.9879 10.9239C85.0819 10.8111 85.1946 10.7548 85.3262 10.7548C85.627 10.7548 85.768 10.8863 85.7492 11.1495L85.6646 16.7889H88.5689C88.7192 16.7889 88.8508 16.8264 88.9636 16.9016C89.0952 16.958 89.161 17.0708 89.161 17.24C89.161 17.5972 88.9636 17.7757 88.5689 17.7757H85.6646L85.6082 28.6597C85.6082 28.9604 85.6646 29.2518 85.7774 29.5338C85.909 29.7969 86.1533 29.9285 86.5105 29.9285C86.8301 29.9285 87.1496 29.9003 87.4692 29.8439C87.8075 29.7875 88.1177 29.6936 88.3997 29.562C88.4937 29.5244 88.5783 29.4868 88.6534 29.4492C88.7474 29.3928 88.8414 29.3646 88.9354 29.3646C89.161 29.3646 89.2738 29.4586 89.2738 29.6466ZM98.7217 28.0111C98.6653 27.1277 98.6277 26.2442 98.6089 25.3607C98.5901 24.4584 98.5901 23.5561 98.6089 22.6538C97.8382 22.7854 97.0862 23.0297 96.3531 23.3869C95.6388 23.7252 95.0467 24.1858 94.5767 24.7685C94.1068 25.3513 93.8718 26.0938 93.8718 26.9961C93.8718 27.372 93.9188 27.7762 94.0128 28.2085C94.1256 28.6409 94.3136 29.0074 94.5767 29.3082C94.8587 29.5902 95.2347 29.7311 95.7046 29.7311C96.043 29.7311 96.4001 29.6372 96.7761 29.4492C97.152 29.2424 97.5092 29.0074 97.8476 28.7443C98.2047 28.4811 98.4961 28.2367 98.7217 28.0111ZM104.53 29.6748C104.53 29.7499 104.493 29.8345 104.417 29.9285C104.361 30.0225 104.305 30.0977 104.248 30.1541C103.665 30.8308 102.914 31.1692 101.992 31.1692C101.184 31.1692 100.536 30.9906 100.047 30.6334C99.5582 30.2763 99.1822 29.7217 98.919 28.9698C98.3175 29.609 97.669 30.1165 96.9735 30.4925C96.2967 30.8684 95.4978 31.0564 94.5767 31.0564C93.9188 31.0564 93.2515 30.9154 92.5748 30.6334C91.9168 30.3327 91.3623 29.9097 90.9112 29.3646C90.4788 28.8195 90.2626 28.1897 90.2626 27.4754C90.2626 26.7611 90.4412 26.1314 90.7984 25.5862C91.1743 25.0223 91.6443 24.543 92.2082 24.1482C92.7721 23.7346 93.3455 23.3963 93.9282 23.1331C94.6801 22.8136 95.4508 22.5692 96.2403 22.4C97.0299 22.212 97.8194 22.024 98.6089 21.8361V21.7233C98.6089 21.3849 98.5995 20.9338 98.5807 20.3698C98.5807 19.7871 98.5243 19.2138 98.4115 18.6498C98.2987 18.0671 98.1107 17.5784 97.8476 17.1836C97.5844 16.7701 97.199 16.5633 96.6915 16.5633C96.1088 16.5633 95.5824 16.7325 95.1125 17.0708C94.6613 17.4092 94.3418 17.8603 94.1538 18.4243C94.1162 18.5934 94.088 18.7626 94.0692 18.9318C94.0504 19.0822 94.0222 19.242 93.9846 19.4111C93.947 19.7119 93.7684 19.9187 93.4489 20.0315C93.1481 20.1255 92.8661 20.1725 92.603 20.1725C92.2834 20.1725 91.9732 20.1067 91.6725 19.9751C91.3717 19.8247 91.2213 19.5521 91.2213 19.1574C91.2213 19.007 91.2401 18.8754 91.2777 18.7626C91.3341 18.631 91.3905 18.4995 91.4469 18.3679C91.7477 17.6536 92.1988 17.1272 92.8003 16.7889C93.4019 16.4505 94.0598 16.2249 94.7741 16.1121C95.5072 15.9993 96.2027 15.943 96.8607 15.943C98.4021 15.943 99.6709 16.3565 100.667 17.1836C101.664 18.0107 102.162 19.2326 102.162 20.8492V25.1069C102.143 25.6332 102.133 26.1784 102.133 26.7423C102.152 27.2874 102.18 27.8326 102.218 28.3777C102.256 28.6973 102.331 29.0074 102.444 29.3082C102.556 29.5902 102.81 29.7311 103.205 29.7311C103.468 29.7311 103.684 29.6748 103.853 29.562C104.041 29.4492 104.211 29.3928 104.361 29.3928C104.436 29.3928 104.483 29.4304 104.502 29.5056C104.521 29.5808 104.53 29.6372 104.53 29.6748ZM121.418 30.577C121.418 30.7274 121.362 30.8308 121.249 30.8872C121.155 30.9248 121.052 30.953 120.939 30.9718C120.488 31.0094 120.037 31.0282 119.586 31.0282C119.135 31.047 118.693 31.0564 118.26 31.0564C118.016 31.0564 117.753 31.047 117.471 31.0282C117.208 31.0094 116.963 30.9624 116.738 30.8872C116.493 30.812 116.287 30.671 116.117 30.4643C115.948 30.2575 115.798 30.0413 115.666 29.8157C114.971 28.5939 114.266 27.3814 113.552 26.1784C112.837 24.9753 112.151 23.7534 111.493 22.5128L110.788 22.9921V29.4774C110.788 29.8157 110.854 30.0319 110.986 30.1259C111.136 30.2199 111.324 30.2575 111.55 30.2387C111.794 30.2011 112.057 30.1823 112.339 30.1823C112.602 30.1823 112.734 30.3327 112.734 30.6334C112.734 30.9342 112.584 31.0846 112.283 31.0846C111.738 31.0846 111.192 31.0658 110.647 31.0282C110.121 30.9906 109.585 30.9718 109.04 30.9718C108.495 30.9718 107.95 30.9906 107.405 31.0282C106.86 31.0846 106.314 31.1128 105.769 31.1128C105.657 31.1128 105.563 31.0658 105.487 30.9718C105.431 30.859 105.403 30.7462 105.403 30.6334C105.403 30.3515 105.553 30.2105 105.854 30.2105C106.042 30.2105 106.22 30.2199 106.39 30.2387C106.559 30.2387 106.737 30.2387 106.925 30.2387C107.151 30.2387 107.283 30.1635 107.32 30.0131C107.358 29.8627 107.377 29.6936 107.377 29.5056C107.395 29.2424 107.405 28.9792 107.405 28.7161C107.424 28.4529 107.433 28.1991 107.433 27.9548V14.2793C107.433 13.8658 107.424 13.4616 107.405 13.0669C107.405 12.6721 107.395 12.268 107.377 11.8544C107.358 11.6476 107.32 11.4221 107.264 11.1777C107.226 10.9333 107.066 10.8111 106.784 10.8111C106.596 10.8111 106.408 10.8205 106.22 10.8393C106.051 10.8581 105.873 10.8675 105.685 10.8675C105.384 10.8675 105.234 10.736 105.234 10.4728C105.234 10.2848 105.337 10.1626 105.544 10.1062C105.769 10.0498 106.004 10.0122 106.249 9.99344C106.493 9.97464 106.728 9.94645 106.954 9.90885C107.48 9.81486 107.997 9.70208 108.504 9.57049C109.031 9.43891 109.557 9.30732 110.083 9.17574C110.14 9.15694 110.187 9.14754 110.224 9.14754C110.281 9.12874 110.337 9.11934 110.394 9.11934C110.676 9.11934 110.817 9.24153 110.817 9.4859C110.817 11.5913 110.807 13.6966 110.788 15.802C110.77 17.8885 110.76 19.9751 110.76 22.0616C111.418 21.5541 112.085 21.0466 112.762 20.539C113.439 20.0127 114.078 19.4581 114.679 18.8754C114.961 18.5934 115.253 18.3115 115.554 18.0295C115.854 17.7287 116.117 17.4186 116.343 17.099C116.493 16.8922 116.578 16.6949 116.597 16.5069C116.634 16.3001 116.681 16.1309 116.738 15.9993C116.813 15.8678 116.973 15.802 117.217 15.802C117.706 15.802 118.195 15.8114 118.683 15.8302C119.172 15.8302 119.651 15.8302 120.121 15.8302C120.403 15.8302 120.544 15.9523 120.544 16.1967C120.544 16.4035 120.479 16.5257 120.347 16.5633C120.215 16.6009 120.074 16.6197 119.924 16.6197C119.642 16.6197 119.341 16.6761 119.022 16.7889C118.721 16.9016 118.467 17.0332 118.26 17.1836C117.546 17.7287 116.841 18.3021 116.146 18.9036C115.469 19.4863 114.783 20.0785 114.087 20.68C114.275 20.9996 114.557 21.4883 114.933 22.1462C115.328 22.8042 115.77 23.5373 116.258 24.3456C116.747 25.1539 117.245 25.9434 117.753 26.7141C118.26 27.4848 118.721 28.1615 119.135 28.7443C119.567 29.3082 119.905 29.6842 120.15 29.8721C120.319 30.0037 120.479 30.0883 120.629 30.1259C120.779 30.1635 120.949 30.2105 121.137 30.2669C121.324 30.3233 121.418 30.4267 121.418 30.577Z" fill="#303030"/>
<path d="M33.9892 18.6668L25.5276 4H15.9194L12.8281 9.35903H22.4328L27.8024 18.6668L22.4328 27.9746H12.8281L15.9194 33.3336H25.5276L33.9892 18.6668Z" fill="#49CEA6"/>
<path d="M11.6997 27.9746L6.32944 18.6668L11.6997 9.35903L14.7911 4H8.60421L0.142578 18.6668L8.60421 33.3336H14.7911L11.6997 27.9746Z" fill="#9BF1D7"/>
</svg>
