<svg width="129" height="38" viewBox="0 0 129 38" fill="none" xmlns="http://www.w3.org/2000/svg">
<path d="M26.3274 9.08022C26.1364 8.88282 25.9092 8.72626 25.6588 8.61963C25.4085 8.513 25.14 8.45841 24.8689 8.45902H20.7479V7.40164C20.7479 5.4386 19.988 3.55597 18.6356 2.16789C17.2831 0.779813 15.4487 0 13.536 0C11.6233 0 9.78895 0.779813 8.43647 2.16789C7.08398 3.55597 6.32416 5.4386 6.32416 7.40164V8.45902H2.20311C1.65662 8.45902 1.13252 8.68182 0.746093 9.07841C0.359669 9.47501 0.142578 10.0129 0.142578 10.5738V24.8484C0.142578 27.4257 2.2675 29.6066 4.77877 29.6066H22.2933C23.508 29.607 24.6747 29.1195 25.5437 28.2485C25.9811 27.8203 26.3294 27.3055 26.5675 26.7353C26.8057 26.1651 26.9288 25.5513 26.9295 24.931V10.5738C26.9303 10.2963 26.8775 10.0215 26.7742 9.76511C26.6708 9.50875 26.519 9.27596 26.3274 9.08022ZM18.4613 15.9928L12.6918 23.3945C12.5971 23.516 12.4774 23.6145 12.3413 23.683C12.2051 23.7516 12.0559 23.7884 11.9043 23.791H11.8876C11.7388 23.791 11.5917 23.7579 11.4566 23.694C11.3214 23.6301 11.2013 23.537 11.1046 23.4209L8.63196 20.455C8.54401 20.3494 8.47719 20.2272 8.43529 20.0951C8.39339 19.9631 8.37724 19.8239 8.38776 19.6854C8.39829 19.547 8.43528 19.412 8.49662 19.2882C8.55796 19.1645 8.64246 19.0543 8.74529 18.9641C8.84811 18.8738 8.96725 18.8052 9.0959 18.7622C9.22456 18.7192 9.3602 18.7026 9.49509 18.7134C9.62999 18.7242 9.76149 18.7622 9.88208 18.8252C10.0027 18.8881 10.11 18.9748 10.198 19.0804L11.8618 21.0755L16.8528 14.6711C17.0236 14.452 17.2722 14.3115 17.5439 14.2805C17.8156 14.2496 18.0882 14.3306 18.3016 14.5059C18.5151 14.6812 18.652 14.9363 18.6822 15.2151C18.7124 15.494 18.6334 15.7737 18.4626 15.9928H18.4613ZM18.6873 8.45902H8.38469V7.40164C8.38469 5.99947 8.92742 4.65473 9.89348 3.66325C10.8595 2.67176 12.1698 2.11475 13.536 2.11475C14.9022 2.11475 16.2125 2.67176 17.1785 3.66325C18.1446 4.65473 18.6873 5.99947 18.6873 7.40164V8.45902Z" fill="#6AD368"/>
<path d="M37.8415 22.3738L34.9654 24.4039C35.3978 25.325 35.9993 26.1803 36.77 26.9698C37.5407 27.7593 38.443 28.3891 39.4769 28.859C40.5296 29.3102 41.6574 29.5357 42.8605 29.5357C43.7628 29.5357 44.6181 29.3948 45.4264 29.1128C46.2535 28.8496 46.996 28.4643 47.6539 27.9567C48.3118 27.4304 48.8288 26.7913 49.2047 26.0393C49.5807 25.2874 49.7687 24.4321 49.7687 23.4734C49.7687 22.6275 49.6277 21.885 49.3457 21.2459C49.0826 20.588 48.7066 20.024 48.2179 19.5541C47.7479 19.0654 47.2122 18.6518 46.6106 18.3134C46.0279 17.9751 45.417 17.6931 44.7779 17.4675C43.7816 17.1292 42.9545 16.8002 42.2965 16.4807C41.6386 16.1423 41.1499 15.7945 40.8303 15.4374C40.5108 15.0614 40.351 14.6291 40.351 14.1403C40.351 13.6516 40.5484 13.2286 40.9431 12.8715C41.3379 12.4955 41.93 12.3075 42.7195 12.3075C43.321 12.3075 43.8568 12.4297 44.3267 12.6741C44.7967 12.8997 45.2102 13.2098 45.5674 13.6046C45.9433 13.9805 46.2629 14.4035 46.5261 14.8734L49.6841 13.1252C49.3457 12.4297 48.8664 11.7624 48.2461 11.1233C47.6445 10.4654 46.8832 9.92962 45.9621 9.51607C45.0598 9.08372 43.979 8.86754 42.7195 8.86754C41.4976 8.86754 40.3886 9.09311 39.3923 9.54426C38.4148 9.97661 37.6347 10.6063 37.052 11.4334C36.488 12.2417 36.2061 13.2098 36.2061 14.3377C36.2061 15.2776 36.3846 16.0859 36.7418 16.7626C37.099 17.4205 37.5501 17.9845 38.0952 18.4544C38.6404 18.9056 39.2137 19.2815 39.8152 19.5823C40.4356 19.8643 40.9807 20.0898 41.4506 20.259C42.3341 20.5974 43.0767 20.9169 43.6782 21.2177C44.2985 21.4997 44.7591 21.8286 45.0598 22.2046C45.3794 22.5805 45.5392 23.0787 45.5392 23.699C45.5392 24.4133 45.2854 24.9773 44.7779 25.3908C44.2703 25.8044 43.6124 26.0111 42.8041 26.0111C42.1086 26.0111 41.46 25.8608 40.8585 25.56C40.257 25.2592 39.7025 24.8363 39.1949 24.2911C38.7062 23.746 38.255 23.1069 37.8415 22.3738ZM55.3118 24.9679C55.3118 24.5919 55.3963 24.2817 55.5655 24.0374C55.7347 23.7742 55.9979 23.5768 56.355 23.4452C56.7122 23.2949 57.1727 23.2197 57.7367 23.2197C58.4322 23.2197 59.0901 23.3137 59.7104 23.5016C60.3496 23.6896 60.9229 23.9716 61.4304 24.3475V22.6557C61.2425 22.4302 60.9323 22.1952 60.5 21.9508C60.0676 21.7064 59.5319 21.4997 58.8927 21.3305C58.2724 21.1613 57.5487 21.0767 56.7216 21.0767C55.105 21.0767 53.8549 21.4433 52.9714 22.1764C52.0879 22.9095 51.6462 23.9058 51.6462 25.1652C51.6462 26.0487 51.853 26.8007 52.2665 27.421C52.6989 28.0225 53.2628 28.4831 53.9583 28.8026C54.6538 29.1222 55.4057 29.282 56.2141 29.282C57.0036 29.282 57.7555 29.141 58.4698 28.859C59.2029 28.577 59.795 28.1541 60.2462 27.5902C60.7161 27.0262 60.9511 26.3307 60.9511 25.5036L60.5 23.8118C60.5 24.4321 60.359 24.9679 60.077 25.419C59.795 25.8514 59.4285 26.1897 58.9773 26.4341C58.5262 26.6597 58.0186 26.7725 57.4547 26.7725C57.06 26.7725 56.6934 26.7067 56.355 26.5751C56.0355 26.4247 55.7817 26.2179 55.5937 25.9548C55.4057 25.6728 55.3118 25.3438 55.3118 24.9679ZM53.9019 19.6951C54.0899 19.5635 54.3813 19.4037 54.776 19.2157C55.1708 19.0278 55.6407 18.868 56.1859 18.7364C56.731 18.6048 57.3043 18.539 57.9059 18.539C58.3006 18.539 58.6578 18.5766 58.9773 18.6518C59.2969 18.727 59.5695 18.8492 59.795 19.0184C60.0394 19.1875 60.218 19.4037 60.3308 19.6669C60.4436 19.9113 60.5 20.212 60.5 20.5692V29H64.0245V19.8079C64.0245 18.9244 63.7802 18.1819 63.2914 17.5803C62.8027 16.96 62.126 16.4901 61.2613 16.1705C60.3966 15.8509 59.4097 15.6911 58.3006 15.6911C57.0975 15.6911 56.0073 15.8603 55.0298 16.1987C54.0523 16.5183 53.2252 16.8566 52.5485 17.2138L53.9019 19.6951ZM67.4218 7.00656V29H71.0874V7.00656H67.4218ZM80.81 29.282C82.3702 29.282 83.7048 28.9812 84.8139 28.3797C85.9418 27.7593 86.8441 26.8383 87.5208 25.6164L84.3346 24.6295C83.9586 25.2498 83.4793 25.7198 82.8965 26.0393C82.3326 26.3401 81.6465 26.4905 80.8382 26.4905C80.1238 26.4905 79.5129 26.3307 79.0054 26.0111C78.4978 25.6916 78.1125 25.231 77.8493 24.6295C77.6049 24.028 77.4827 23.2949 77.4827 22.4302C77.5015 21.5279 77.6331 20.776 77.8775 20.1744C78.1407 19.5541 78.5072 19.0936 78.9772 18.7928C79.4659 18.4732 80.0674 18.3134 80.7818 18.3134C81.3645 18.3134 81.872 18.445 82.3044 18.7082C82.7367 18.9714 83.0657 19.3285 83.2913 19.7797C83.5356 20.2308 83.6578 20.776 83.6578 21.4151C83.6578 21.5467 83.6202 21.7158 83.545 21.9226C83.4887 22.1106 83.4229 22.261 83.3477 22.3738L84.3346 21.0767H75.9037V23.3325H87.5208C87.5396 23.2197 87.549 23.0693 87.549 22.8813C87.5678 22.6933 87.5772 22.5148 87.5772 22.3456C87.5772 20.9545 87.314 19.7703 86.7877 18.7928C86.2613 17.7965 85.4906 17.0446 84.4755 16.537C83.4793 16.0107 82.2668 15.7475 80.8382 15.7475C79.4095 15.7475 78.1689 16.0295 77.1162 16.5934C76.0635 17.1386 75.2458 17.9187 74.6631 18.9338C74.0991 19.9301 73.8172 21.1237 73.8172 22.5148C73.8172 23.887 74.0991 25.0807 74.6631 26.0957C75.2458 27.092 76.0635 27.8721 77.1162 28.4361C78.1689 29 79.4001 29.282 80.81 29.282ZM93.9126 7.00656H90.2471V29H93.9126V7.00656ZM104.571 22.5148C104.571 21.0673 104.28 19.8455 103.697 18.8492C103.114 17.8341 102.343 17.0634 101.385 16.537C100.445 16.0107 99.4298 15.7475 98.3395 15.7475C97.268 15.7475 96.3093 16.0201 95.4634 16.5652C94.6363 17.1104 93.9784 17.8905 93.4897 18.9056C93.0009 19.9019 92.7566 21.1049 92.7566 22.5148C92.7566 23.9058 93.0009 25.1089 93.4897 26.1239C93.9784 27.139 94.6363 27.9191 95.4634 28.4643C96.3093 29.0094 97.268 29.282 98.3395 29.282C99.4298 29.282 100.445 29.0188 101.385 28.4925C102.343 27.9661 103.114 27.1954 103.697 26.1803C104.28 25.1652 104.571 23.9434 104.571 22.5148ZM100.793 22.5148C100.793 23.2855 100.633 23.9528 100.313 24.5167C99.9937 25.0807 99.5614 25.513 99.0162 25.8138C98.4899 26.1145 97.9072 26.2649 97.268 26.2649C96.7229 26.2649 96.1872 26.1239 95.6608 25.842C95.1533 25.5412 94.7303 25.1089 94.392 24.5449C94.0724 23.981 93.9126 23.3043 93.9126 22.5148C93.9126 21.7252 94.0724 21.0485 94.392 20.4846C94.7303 19.9207 95.1533 19.4977 95.6608 19.2157C96.1872 18.915 96.7229 18.7646 97.268 18.7646C97.9072 18.7646 98.4899 18.915 99.0162 19.2157C99.5614 19.5165 99.9937 19.9489 100.313 20.5128C100.633 21.0767 100.793 21.744 100.793 22.5148ZM107.125 11.0105C107.125 11.5932 107.341 12.082 107.773 12.4767C108.205 12.8715 108.722 13.0689 109.324 13.0689C109.925 13.0689 110.433 12.8715 110.847 12.4767C111.279 12.082 111.495 11.5932 111.495 11.0105C111.495 10.409 111.279 9.92022 110.847 9.54426C110.433 9.14951 109.925 8.95213 109.324 8.95213C108.722 8.95213 108.205 9.14951 107.773 9.54426C107.341 9.92022 107.125 10.409 107.125 11.0105ZM107.519 16.0295V29H111.072V16.0295H107.519ZM123.323 21.1049V29H127.101V20.7102C127.101 19.1499 126.726 17.9375 125.974 17.0728C125.222 16.1893 124.075 15.7475 122.534 15.7475C121.613 15.7475 120.823 15.9449 120.165 16.3397C119.526 16.7156 119.009 17.2702 118.614 18.0033V16.0295H114.949V29H118.614V21.1049C118.614 20.5598 118.718 20.0898 118.924 19.6951C119.131 19.3003 119.432 18.9996 119.827 18.7928C120.221 18.5672 120.673 18.4544 121.18 18.4544C121.932 18.4544 122.477 18.68 122.816 19.1311C123.154 19.5823 123.323 20.2402 123.323 21.1049Z" fill="#303030"/>
</svg>
