<svg width="129" height="34" viewBox="0 0 129 34" fill="none" xmlns="http://www.w3.org/2000/svg">
<path d="M27.5141 33.3112H6.41878C2.9521 33.3112 0.142578 30.5298 0.142578 27.0978V6.21345C0.142578 2.78144 2.9521 0 6.41878 0H27.5141C30.9807 0 33.7903 2.78144 33.7903 6.21345V27.0978C33.7903 30.5298 30.9807 33.3112 27.5141 33.3112Z" fill="#7782FF"/>
<path d="M23.029 16.9621C23.629 17.707 23.9337 18.5744 23.9337 19.555C23.9337 20.9975 23.448 22.129 22.4766 22.9304C21.5052 23.7318 20.1147 24.1467 18.3052 24.1467H10.4004V7.31665H18.1147C19.848 7.31665 21.1814 7.6938 22.1242 8.43866C23.0671 9.18351 23.5433 10.2489 23.5433 11.6255C23.5433 12.6438 23.2671 13.483 22.7242 14.1618C22.1814 14.8407 21.4671 15.2744 20.5814 15.4818C21.6195 15.727 22.429 16.2172 23.029 16.9621ZM14.5052 14.1995H17.2004C18.629 14.1995 19.3433 13.5961 19.3433 12.3892C19.3433 11.1824 18.6099 10.5789 17.1528 10.5789H14.5052V14.1995ZM19.7242 18.9893C19.7242 18.3858 19.5242 17.9144 19.1242 17.575C18.7242 17.2355 18.1528 17.0658 17.4194 17.0658H14.5147V20.8467H17.448C18.9623 20.8373 19.7242 20.2244 19.7242 18.9893Z" fill="white"/>
<path d="M53.2863 24.1467L49.6101 17.7918H48.6768V24.1467H44.5625V7.31665H51.5816C52.9244 7.31665 54.0673 7.54294 54.9911 8.00494C55.9244 8.46694 56.6197 9.09865 57.0863 9.90008C57.553 10.7015 57.7816 11.6161 57.7816 12.6532C57.7816 13.879 57.4387 14.9161 56.7625 15.7741C56.0768 16.6321 55.0959 17.2167 53.7911 17.5372L57.8292 24.1561H53.2863V24.1467ZM48.6768 15.0104H51.2196C52.0387 15.0104 52.6387 14.8312 53.0197 14.473C53.4006 14.1147 53.6006 13.5867 53.6006 12.889C53.6006 12.2195 53.4006 11.7009 53.0101 11.3144C52.6197 10.9372 52.0196 10.7392 51.2196 10.7392H48.6768V15.0104Z" fill="#263238"/>
<path d="M76.3911 21.0825H70.0197L68.9625 24.1562H64.6387L70.8673 7.44873H75.6006L81.8292 24.1562H77.4578L76.3911 21.0825ZM75.3339 17.9805L73.2197 11.7953L71.0768 17.9805H75.3339Z" fill="#263238"/>
<path d="M104.525 24.1467H100.41L93.5342 13.8129V24.1467H89.4199V7.31665H93.5342L100.41 17.7447V7.31665H104.525V24.1467Z" fill="#263238"/>
<path d="M127.592 20.0925C126.878 21.3653 125.849 22.3648 124.516 23.0813C123.173 23.7979 121.602 24.1562 119.792 24.1562H113.373V7.32617H119.792C121.621 7.32617 123.202 7.67503 124.525 8.37275C125.859 9.07046 126.878 10.051 127.592 11.3239C128.306 12.5968 128.659 14.0488 128.659 15.7082C128.659 17.3488 128.297 18.8102 127.592 20.0925ZM123.164 19.2439C124.049 18.4048 124.497 17.2168 124.497 15.6988C124.497 14.1713 124.049 12.9928 123.164 12.1536C122.278 11.3145 121.03 10.8902 119.421 10.8902H117.478V20.5073H119.421C121.03 20.5073 122.278 20.0925 123.164 19.2439Z" fill="#263238"/>
</svg>
