<svg width="127" height="48" viewBox="0 0 127 48" fill="none" xmlns="http://www.w3.org/2000/svg">
<path d="M8.70058 12.656C8.60725 12.432 8.48125 12.1473 8.32258 11.802C8.17324 11.4567 8.00991 11.0833 7.83258 10.682C7.65524 10.2807 7.46391 9.87 7.25858 9.45C7.06258 9.02067 6.87591 8.61933 6.69858 8.246C6.52124 7.86333 6.35324 7.52267 6.19458 7.224C6.04524 6.92533 5.92391 6.69667 5.83058 6.538C5.72791 7.63933 5.64391 8.834 5.57858 10.122C5.51324 11.4007 5.45724 12.6933 5.41058 14H4.08058C4.11791 13.16 4.15991 12.3153 4.20658 11.466C4.25324 10.6073 4.30458 9.76733 4.36058 8.946C4.42591 8.11533 4.49124 7.308 4.55658 6.524C4.63124 5.74 4.71058 4.998 4.79458 4.298H5.98458C6.23658 4.70867 6.50724 5.194 6.79658 5.754C7.08591 6.314 7.37525 6.902 7.66458 7.518C7.95391 8.12467 8.23391 8.736 8.50458 9.352C8.77525 9.95867 9.02258 10.514 9.24658 11.018C9.47058 10.514 9.71791 9.95867 9.98858 9.352C10.2592 8.736 10.5392 8.12467 10.8286 7.518C11.1179 6.902 11.4072 6.314 11.6966 5.754C11.9859 5.194 12.2566 4.70867 12.5086 4.298H13.6986C14.0159 7.42467 14.2539 10.6587 14.4126 14H13.0826C13.0359 12.6933 12.9799 11.4007 12.9146 10.122C12.8492 8.834 12.7652 7.63933 12.6626 6.538C12.5692 6.69667 12.4432 6.92533 12.2846 7.224C12.1352 7.52267 11.9719 7.86333 11.7946 8.246C11.6172 8.61933 11.4259 9.02067 11.2206 9.45C11.0246 9.87 10.8379 10.2807 10.6606 10.682C10.4832 11.0833 10.3152 11.4567 10.1566 11.802C10.0072 12.1473 9.88591 12.432 9.79258 12.656H8.70058ZM22.8839 10.36C22.8839 10.9387 22.7999 11.4613 22.6319 11.928C22.4639 12.3947 22.2259 12.796 21.9179 13.132C21.6192 13.468 21.2599 13.7293 20.8399 13.916C20.4199 14.0933 19.9626 14.182 19.4679 14.182C18.9732 14.182 18.5159 14.0933 18.0959 13.916C17.6759 13.7293 17.3119 13.468 17.0039 13.132C16.7052 12.796 16.4719 12.3947 16.3039 11.928C16.1359 11.4613 16.0519 10.9387 16.0519 10.36C16.0519 9.79067 16.1359 9.27267 16.3039 8.806C16.4719 8.33 16.7052 7.924 17.0039 7.588C17.3119 7.252 17.6759 6.99533 18.0959 6.818C18.5159 6.63133 18.9732 6.538 19.4679 6.538C19.9626 6.538 20.4199 6.63133 20.8399 6.818C21.2599 6.99533 21.6192 7.252 21.9179 7.588C22.2259 7.924 22.4639 8.33 22.6319 8.806C22.7999 9.27267 22.8839 9.79067 22.8839 10.36ZM21.5259 10.36C21.5259 9.53867 21.3392 8.89 20.9659 8.414C20.6019 7.92867 20.1026 7.686 19.4679 7.686C18.8332 7.686 18.3292 7.92867 17.9559 8.414C17.5919 8.89 17.4099 9.53867 17.4099 10.36C17.4099 11.1813 17.5919 11.8347 17.9559 12.32C18.3292 12.796 18.8332 13.034 19.4679 13.034C20.1026 13.034 20.6019 12.796 20.9659 12.32C21.3392 11.8347 21.5259 11.1813 21.5259 10.36ZM29.4197 8.26C29.261 8.12933 29.0324 8.00333 28.7337 7.882C28.435 7.76067 28.1084 7.7 27.7537 7.7C27.3804 7.7 27.0584 7.77 26.7877 7.91C26.5264 8.04067 26.3117 8.22733 26.1437 8.47C25.9757 8.70333 25.8544 8.98333 25.7797 9.31C25.705 9.63667 25.6677 9.98667 25.6677 10.36C25.6677 11.2093 25.8777 11.8673 26.2977 12.334C26.7177 12.7913 27.2777 13.02 27.9777 13.02C28.3324 13.02 28.6264 13.006 28.8597 12.978C29.1024 12.9407 29.289 12.9033 29.4197 12.866V8.26ZM29.4197 3.36L30.7217 3.136V13.79C30.423 13.874 30.0404 13.958 29.5737 14.042C29.107 14.126 28.5704 14.168 27.9637 14.168C27.4037 14.168 26.8997 14.0793 26.4517 13.902C26.0037 13.7247 25.621 13.4727 25.3037 13.146C24.9864 12.8193 24.739 12.4227 24.5617 11.956C24.3937 11.48 24.3097 10.948 24.3097 10.36C24.3097 9.8 24.3797 9.28667 24.5197 8.82C24.669 8.35333 24.8837 7.952 25.1637 7.616C25.4437 7.28 25.7844 7.01867 26.1857 6.832C26.5964 6.64533 27.063 6.552 27.5857 6.552C28.0057 6.552 28.3744 6.608 28.6917 6.72C29.0184 6.832 29.261 6.93933 29.4197 7.042V3.36ZM32.5538 10.374C32.5538 9.73 32.6472 9.17 32.8338 8.694C33.0205 8.20867 33.2678 7.80733 33.5758 7.49C33.8838 7.17267 34.2385 6.93467 34.6398 6.776C35.0412 6.61733 35.4518 6.538 35.8718 6.538C36.8518 6.538 37.6032 6.846 38.1258 7.462C38.6485 8.06867 38.9098 8.99733 38.9098 10.248C38.9098 10.304 38.9098 10.3787 38.9098 10.472C38.9098 10.556 38.9052 10.6353 38.8958 10.71H33.9118C33.9678 11.466 34.1872 12.04 34.5698 12.432C34.9525 12.824 35.5498 13.02 36.3618 13.02C36.8192 13.02 37.2018 12.9827 37.5098 12.908C37.8272 12.824 38.0652 12.7447 38.2238 12.67L38.4058 13.762C38.2472 13.846 37.9672 13.9347 37.5658 14.028C37.1738 14.1213 36.7258 14.168 36.2218 14.168C35.5872 14.168 35.0365 14.0747 34.5698 13.888C34.1125 13.692 33.7345 13.426 33.4358 13.09C33.1372 12.754 32.9132 12.3573 32.7638 11.9C32.6238 11.4333 32.5538 10.9247 32.5538 10.374ZM37.5518 9.66C37.5612 9.072 37.4118 8.59133 37.1038 8.218C36.8052 7.83533 36.3898 7.644 35.8578 7.644C35.5592 7.644 35.2932 7.70467 35.0598 7.826C34.8358 7.938 34.6445 8.08733 34.4858 8.274C34.3272 8.46067 34.2012 8.67533 34.1078 8.918C34.0238 9.16067 33.9678 9.408 33.9398 9.66H37.5518ZM43.4682 6.566C43.5802 6.566 43.7062 6.57533 43.8462 6.594C43.9955 6.60333 44.1402 6.622 44.2802 6.65C44.4202 6.66867 44.5462 6.692 44.6582 6.72C44.7795 6.73867 44.8682 6.75733 44.9242 6.776L44.7002 7.91C44.5975 7.87267 44.4248 7.83067 44.1822 7.784C43.9488 7.728 43.6455 7.7 43.2722 7.7C43.0295 7.7 42.7868 7.728 42.5442 7.784C42.3108 7.83067 42.1568 7.86333 42.0822 7.882V14H40.7802V7.028C41.0882 6.916 41.4708 6.81333 41.9282 6.72C42.3855 6.61733 42.8988 6.566 43.4682 6.566ZM46.1805 6.93C46.4792 6.85533 46.8759 6.776 47.3705 6.692C47.8652 6.608 48.4345 6.566 49.0785 6.566C49.6572 6.566 50.1379 6.65 50.5205 6.818C50.9032 6.97667 51.2065 7.20533 51.4305 7.504C51.6639 7.79333 51.8272 8.14333 51.9205 8.554C52.0139 8.96467 52.0605 9.41733 52.0605 9.912V14H50.7585V10.192C50.7585 9.744 50.7259 9.36133 50.6605 9.044C50.6045 8.72667 50.5065 8.47 50.3665 8.274C50.2265 8.078 50.0399 7.938 49.8065 7.854C49.5732 7.76067 49.2839 7.714 48.9385 7.714C48.7985 7.714 48.6539 7.71867 48.5045 7.728C48.3552 7.73733 48.2105 7.75133 48.0705 7.77C47.9399 7.77933 47.8185 7.79333 47.7065 7.812C47.6039 7.83067 47.5292 7.84467 47.4825 7.854V14H46.1805V6.93Z" fill="#263238"/>
<path d="M12.0226 40.42C8.64258 40.42 6.06258 39.48 4.28258 37.6C2.52258 35.72 1.64258 33.05 1.64258 29.59C1.64258 27.87 1.91258 26.34 2.45258 25C2.99258 23.64 3.73258 22.5 4.67258 21.58C5.61258 20.64 6.73258 19.93 8.03258 19.45C9.33258 18.97 10.7426 18.73 12.2626 18.73C13.1426 18.73 13.9426 18.8 14.6626 18.94C15.3826 19.06 16.0126 19.21 16.5526 19.39C17.0926 19.55 17.5426 19.72 17.9026 19.9C18.2626 20.08 18.5226 20.22 18.6826 20.32L17.3326 24.1C16.6926 23.76 15.9426 23.47 15.0826 23.23C14.2426 22.99 13.2826 22.87 12.2026 22.87C11.4826 22.87 10.7726 22.99 10.0726 23.23C9.39258 23.47 8.78258 23.86 8.24258 24.4C7.72258 24.92 7.30258 25.6 6.98258 26.44C6.66258 27.28 6.50258 28.3 6.50258 29.5C6.50258 30.46 6.60258 31.36 6.80258 32.2C7.02258 33.02 7.36258 33.73 7.82258 34.33C8.30258 34.93 8.92258 35.41 9.68258 35.77C10.4426 36.11 11.3626 36.28 12.4426 36.28C13.1226 36.28 13.7326 36.24 14.2726 36.16C14.8126 36.08 15.2926 35.99 15.7126 35.89C16.1326 35.77 16.5026 35.64 16.8226 35.5C17.1426 35.36 17.4326 35.23 17.6926 35.11L18.9826 38.86C18.3226 39.26 17.3926 39.62 16.1926 39.94C14.9926 40.26 13.6026 40.42 12.0226 40.42ZM31.2057 28.18C30.8057 28.08 30.3357 27.98 29.7957 27.88C29.2557 27.76 28.6757 27.7 28.0557 27.7C27.7757 27.7 27.4357 27.73 27.0357 27.79C26.6557 27.83 26.3657 27.88 26.1657 27.94V40H21.6957V25.06C22.4957 24.78 23.4357 24.52 24.5157 24.28C25.6157 24.02 26.8357 23.89 28.1757 23.89C28.4157 23.89 28.7057 23.91 29.0457 23.95C29.3857 23.97 29.7257 24.01 30.0657 24.07C30.4057 24.11 30.7457 24.17 31.0857 24.25C31.4257 24.31 31.7157 24.39 31.9557 24.49L31.2057 28.18ZM49.2995 24.22C48.3995 27.26 47.4595 30.11 46.4795 32.77C45.4995 35.43 44.4295 38.01 43.2695 40.51C42.8495 41.41 42.4295 42.17 42.0095 42.79C41.5895 43.43 41.1295 43.95 40.6295 44.35C40.1295 44.77 39.5595 45.07 38.9195 45.25C38.2995 45.45 37.5695 45.55 36.7295 45.55C36.0295 45.55 35.3795 45.48 34.7795 45.34C34.1995 45.22 33.7195 45.08 33.3395 44.92L34.1195 41.35C34.5795 41.51 34.9895 41.62 35.3495 41.68C35.7095 41.74 36.0895 41.77 36.4895 41.77C37.2895 41.77 37.8995 41.55 38.3195 41.11C38.7595 40.69 39.1295 40.1 39.4295 39.34C38.4095 37.34 37.3895 35.1 36.3695 32.62C35.3495 30.12 34.3895 27.32 33.4895 24.22H38.2295C38.4295 25 38.6595 25.85 38.9195 26.77C39.1995 27.67 39.4895 28.59 39.7895 29.53C40.0895 30.45 40.3895 31.35 40.6895 32.23C41.0095 33.11 41.3095 33.91 41.5895 34.63C41.8495 33.91 42.1195 33.11 42.3995 32.23C42.6795 31.35 42.9495 30.45 43.2095 29.53C43.4895 28.59 43.7495 27.67 43.9895 26.77C44.2495 25.85 44.4795 25 44.6795 24.22H49.2995ZM61.8057 32.23C61.8057 30.85 61.4957 29.75 60.8757 28.93C60.2557 28.09 59.3357 27.67 58.1157 27.67C57.7157 27.67 57.3457 27.69 57.0057 27.73C56.6657 27.75 56.3857 27.78 56.1657 27.82V35.89C56.4457 36.07 56.8057 36.22 57.2457 36.34C57.7057 36.46 58.1657 36.52 58.6257 36.52C60.7457 36.52 61.8057 35.09 61.8057 32.23ZM66.3657 32.11C66.3657 33.33 66.2157 34.44 65.9157 35.44C65.6157 36.44 65.1757 37.3 64.5957 38.02C64.0157 38.74 63.2957 39.3 62.4357 39.7C61.5757 40.1 60.5857 40.3 59.4657 40.3C58.8457 40.3 58.2657 40.24 57.7257 40.12C57.1857 40 56.6657 39.83 56.1657 39.61V45.55H51.6957V24.76C52.0957 24.64 52.5557 24.53 53.0757 24.43C53.5957 24.31 54.1357 24.21 54.6957 24.13C55.2757 24.05 55.8557 23.99 56.4357 23.95C57.0357 23.89 57.6057 23.86 58.1457 23.86C59.4457 23.86 60.6057 24.06 61.6257 24.46C62.6457 24.84 63.5057 25.39 64.2057 26.11C64.9057 26.81 65.4357 27.67 65.7957 28.69C66.1757 29.71 66.3657 30.85 66.3657 32.11ZM69.6512 20.29L74.1212 19.57V24.22H79.4912V27.94H74.1212V33.49C74.1212 34.43 74.2812 35.18 74.6012 35.74C74.9412 36.3 75.6112 36.58 76.6112 36.58C77.0912 36.58 77.5812 36.54 78.0812 36.46C78.6012 36.36 79.0712 36.23 79.4912 36.07L80.1212 39.55C79.5812 39.77 78.9812 39.96 78.3212 40.12C77.6612 40.28 76.8512 40.36 75.8912 40.36C74.6712 40.36 73.6612 40.2 72.8612 39.88C72.0612 39.54 71.4212 39.08 70.9412 38.5C70.4612 37.9 70.1212 37.18 69.9212 36.34C69.7412 35.5 69.6512 34.57 69.6512 33.55V20.29ZM97.3053 32.08C97.3053 33.32 97.1253 34.46 96.7653 35.5C96.4053 36.52 95.8853 37.4 95.2053 38.14C94.5253 38.86 93.7053 39.42 92.7453 39.82C91.8053 40.22 90.7453 40.42 89.5653 40.42C88.4053 40.42 87.3453 40.22 86.3853 39.82C85.4453 39.42 84.6353 38.86 83.9553 38.14C83.2753 37.4 82.7453 36.52 82.3653 35.5C81.9853 34.46 81.7953 33.32 81.7953 32.08C81.7953 30.84 81.9853 29.71 82.3653 28.69C82.7653 27.67 83.3053 26.8 83.9853 26.08C84.6853 25.36 85.5053 24.8 86.4453 24.4C87.4053 24 88.4453 23.8 89.5653 23.8C90.7053 23.8 91.7453 24 92.6853 24.4C93.6453 24.8 94.4653 25.36 95.1453 26.08C95.8253 26.8 96.3553 27.67 96.7353 28.69C97.1153 29.71 97.3053 30.84 97.3053 32.08ZM92.7453 32.08C92.7453 30.7 92.4653 29.62 91.9053 28.84C91.3653 28.04 90.5853 27.64 89.5653 27.64C88.5453 27.64 87.7553 28.04 87.1953 28.84C86.6353 29.62 86.3553 30.7 86.3553 32.08C86.3553 33.46 86.6353 34.56 87.1953 35.38C87.7553 36.18 88.5453 36.58 89.5653 36.58C90.5853 36.58 91.3653 36.18 91.9053 35.38C92.4653 34.56 92.7453 33.46 92.7453 32.08Z" fill="#263238"/>
<path d="M114.143 43V30.0565L104.143 21V43H114.143Z" fill="#27CAEA"/>
<path d="M126.094 42.6862V29.9273L116.438 21V42.6862H126.094Z" fill="#FFB04E"/>
</svg>
