<svg width="92" height="37" viewBox="0 0 92 37" fill="none" xmlns="http://www.w3.org/2000/svg">
<path d="M0.142578 22.7435V0H13.6728V22.7324H0.142578V22.7435ZM12.0335 17.4523L12.3815 14.94L11.1239 14.8177L10.7422 16.7519C9.95618 17.141 8.99054 17.33 7.83402 17.33C6.26205 17.33 5.01569 16.8409 4.10619 15.8515C3.18547 14.8622 2.73633 13.5616 2.73633 11.9387C2.73633 10.3602 3.18547 9.05962 4.07251 8.03693C4.95955 7.01425 6.12733 6.50291 7.57579 6.50291C8.31686 6.50291 8.94563 6.59184 9.45091 6.75858C9.95619 6.92532 10.4166 7.14765 10.8545 7.43666L11.225 9.34863L12.505 9.22636L12.1345 6.71412C11.5955 6.25836 10.9555 5.89153 10.2144 5.60251C9.47336 5.32461 8.55265 5.1801 7.4635 5.1801C6.17224 5.1801 5.06063 5.49135 4.12867 6.12497C3.19672 6.75858 2.46687 7.59229 1.95036 8.62609C1.43386 9.671 1.1756 10.7937 1.1756 11.9943C1.1756 13.8951 1.7707 15.4847 2.96091 16.7519C4.15112 18.0192 5.70063 18.6528 7.62068 18.6528C9.50705 18.6528 10.978 18.2526 12.0335 17.4523Z" fill="#263238"/>
<path d="M18.2656 22.7435V0H24.0819V22.7324H18.2656V22.7435ZM18.8832 18.4527H23.4756V17.3078H21.8924V4.61318H18.8607V5.75813H20.4664V17.3078H18.8832V18.4527Z" fill="#263238"/>
<path d="M28.6738 22.7435V0H38.8917V22.7324H28.6738V22.7435ZM30.5265 10.1823L30.2009 12.2499L31.3799 12.3944L31.7279 10.8493C32.2332 10.6047 32.8059 10.4825 33.4796 10.4825C34.288 10.4825 34.8382 10.6826 35.1189 11.0827C35.3996 11.4829 35.5344 12.0054 35.5344 12.6501V13.4505C35.2874 13.4282 35.0291 13.406 34.7484 13.3949C34.4677 13.3838 34.1982 13.3727 33.9287 13.3727C32.9182 13.3727 31.9525 13.5505 31.0542 13.9062C30.156 14.2619 29.7069 15.0067 29.7069 16.1294C29.7069 17.0854 30.01 17.7413 30.6276 18.097C31.2451 18.4638 31.8515 18.6417 32.4466 18.6417C33.1764 18.6417 33.8052 18.4527 34.3217 18.0748C34.8382 17.6968 35.2424 17.2744 35.5344 16.7853V16.8298C35.5568 18.0414 36.107 18.6417 37.185 18.6417C37.6004 18.6417 37.9934 18.5416 38.3639 18.3416L38.3415 17.4189C38.1618 17.4967 37.9597 17.5412 37.7351 17.5412C37.2186 17.5412 36.9604 17.2188 36.9604 16.5741V12.3166C36.9604 10.3157 35.8824 9.31528 33.7266 9.31528C33.1315 9.31528 32.5701 9.38198 32.0423 9.51537C31.5034 9.65988 30.9981 9.8822 30.5265 10.1823ZM35.5231 15.0956C35.467 15.8293 35.1638 16.4185 34.6136 16.8409C34.0635 17.2744 33.4796 17.4856 32.8508 17.4856C32.4578 17.4856 32.076 17.3744 31.7167 17.1632C31.3462 16.952 31.1665 16.5519 31.1665 15.9738C31.1665 15.2735 31.4472 14.8289 31.9862 14.6177C32.5364 14.4065 33.1427 14.3064 33.8276 14.3064C34.1308 14.3064 34.4227 14.3175 34.7035 14.3509C34.9842 14.3731 35.2649 14.3953 35.5119 14.4065V15.0956H35.5231Z" fill="#263238"/>
<path d="M43.4961 22.7435V0H52.7819V22.7324H43.4961V22.7435ZM51.8051 15.8627C51.8051 15.1512 51.6142 14.6288 51.2324 14.2842C50.8507 13.9396 50.3903 13.7061 49.8289 13.5727C49.2675 13.4394 48.7173 13.3282 48.1671 13.2393C47.6169 13.1503 47.1453 13.0058 46.7636 12.8169C46.3818 12.6279 46.1909 12.2944 46.1909 11.8164C46.1909 11.3606 46.3705 11.0272 46.7411 10.8048C47.1116 10.5825 47.572 10.4825 48.1446 10.4825C48.8071 10.4825 49.4247 10.627 49.9973 10.9271L50.2219 12.3722L51.4009 12.2277L51.1763 10.1379C50.7945 9.90444 50.3342 9.71546 49.784 9.55984C49.2338 9.40421 48.6499 9.31528 48.0211 9.31528C47.1902 9.31528 46.4267 9.51537 45.7193 9.90444C45.0119 10.2935 44.6639 10.9605 44.6639 11.9164C44.6639 12.6168 44.8547 13.1281 45.2365 13.4505C45.6182 13.784 46.0899 14.0063 46.6625 14.1397C47.2352 14.2731 47.7965 14.3842 48.358 14.4843C48.9194 14.5732 49.391 14.7288 49.7728 14.9289C50.1545 15.129 50.3454 15.4736 50.3454 15.9738C50.3454 16.4852 50.0983 16.8631 49.6043 17.1077C49.1102 17.3522 48.5489 17.4745 47.9088 17.4745C47.1902 17.4745 46.5165 17.33 45.8989 17.0299L45.9551 15.8404L44.821 15.7182L44.5403 17.7524C44.9333 18.0081 45.4498 18.2193 46.0786 18.386C46.7074 18.5528 47.3362 18.6417 47.9762 18.6417C49.0654 18.6417 49.9749 18.3971 50.7047 17.8969C51.4346 17.4189 51.8051 16.7297 51.8051 15.8627Z" fill="#263238"/>
<path d="M57.373 22.7435V0H66.6589V22.7324H57.373V22.7435ZM65.682 15.8627C65.682 15.1512 65.4911 14.6288 65.1093 14.2842C64.7276 13.9396 64.2672 13.7061 63.7058 13.5727C63.1444 13.4394 62.5942 13.3282 62.044 13.2393C61.4938 13.1503 61.0222 13.0058 60.6405 12.8169C60.2587 12.6279 60.0678 12.2944 60.0678 11.8164C60.0678 11.3606 60.2475 11.0272 60.618 10.8048C60.9885 10.5825 61.4489 10.4825 62.0215 10.4825C62.684 10.4825 63.3016 10.627 63.8743 10.9271L64.0988 12.3722L65.2778 12.2277L65.0532 10.1379C64.6715 9.90444 64.2111 9.71546 63.6609 9.55984C63.1107 9.40421 62.5268 9.31528 61.898 9.31528C61.0671 9.31528 60.3036 9.51537 59.5962 9.90444C58.8889 10.2935 58.5408 10.9605 58.5408 11.9164C58.5408 12.6168 58.7317 13.1281 59.1134 13.4505C59.4952 13.784 59.9668 14.0063 60.5395 14.1397C61.1121 14.2731 61.6735 14.3842 62.2349 14.4843C62.7963 14.5732 63.2679 14.7288 63.6497 14.9289C64.0314 15.129 64.2223 15.4736 64.2223 15.9738C64.2223 16.4852 63.9753 16.8631 63.4813 17.1077C62.9872 17.3522 62.4258 17.4745 61.7858 17.4745C61.0672 17.4745 60.3934 17.33 59.7759 17.0299L59.8321 15.8404L58.698 15.7182L58.4173 17.7524C58.8103 18.0081 59.3268 18.2193 59.9556 18.386C60.5843 18.5528 61.2131 18.6417 61.8532 18.6417C62.9423 18.6417 63.8518 18.3971 64.5816 17.8969C65.3115 17.4189 65.682 16.7297 65.682 15.8627Z" fill="#263238"/>
<path d="M71.252 22.7435V0H77.3714V22.7324H71.252V22.7435ZM72.1502 18.4527H76.7426V17.3078H75.1594V9.50426H72.1166V10.6492H73.7446V17.3078H72.1614V18.4527H72.1502ZM73.5875 5.35796V7.19211H75.137V5.35796H73.5875Z" fill="#263238"/>
<path d="M81.9629 22.7435V0H91.7428V22.7324H81.9629V22.7435ZM90.867 15.4403L89.6431 15.1735C89.3736 16.6853 88.554 17.4411 87.2066 17.4411C86.3083 17.4411 85.6234 17.141 85.1518 16.5407C84.6802 15.9405 84.4444 15.0957 84.4444 14.0285C84.4444 13.0614 84.6577 12.2388 85.0732 11.5496C85.4886 10.8604 86.1848 10.5269 87.1504 10.5269C87.8915 10.5269 88.5427 10.6937 89.0817 11.0272L89.4298 12.5389L90.6088 12.3944L90.2607 10.2379C89.8003 9.89332 89.3175 9.64877 88.8122 9.51537C88.307 9.38198 87.7567 9.31528 87.1616 9.31528C85.7581 9.31528 84.6914 9.80439 83.9952 10.7826C83.2878 11.7608 82.9398 12.8724 82.9398 14.1063C82.9398 15.5403 83.3103 16.663 84.0626 17.4523C84.8037 18.2526 85.803 18.6528 87.0494 18.6528C88.2957 18.6528 89.2165 18.3082 89.8003 17.6301C90.3842 16.9409 90.7435 16.2184 90.867 15.4403Z" fill="#263238"/>
<path d="M5.99325 35.1602C5.73499 35.627 5.35322 35.9939 4.85917 36.2496C4.35389 36.5052 3.75878 36.6386 3.06262 36.6386H1.05273V30.3691H3.06262C3.75878 30.3691 4.36512 30.4914 4.85917 30.7471C5.35322 31.0028 5.73499 31.3585 5.99325 31.8365C6.2515 32.3145 6.37501 32.8591 6.37501 33.5039C6.37501 34.1375 6.2515 34.6933 5.99325 35.1602ZM4.88161 35.2825C5.31952 34.86 5.53288 34.2709 5.53288 33.5039C5.53288 32.7369 5.31952 32.1477 4.88161 31.7253C4.44371 31.3029 3.81492 31.0917 2.98402 31.0917H1.84997V35.9161H2.98402C3.81492 35.9161 4.44371 35.7049 4.88161 35.2825Z" fill="#FF5196"/>
<path d="M10.5404 31.025V33.1704H12.9433V33.7929H10.5404V35.9828H13.2127V36.6386H9.7207V30.3691H13.2127V31.025H10.5404Z" fill="#FF5196"/>
<path d="M20.3098 35.8383C20.1638 36.094 19.9505 36.3052 19.6585 36.4608C19.3666 36.6164 19.0073 36.7054 18.5694 36.7054C18.1539 36.7054 17.7722 36.6275 17.4465 36.483C17.1209 36.3274 16.8627 36.1273 16.6606 35.8605C16.4697 35.5937 16.3574 35.2936 16.3237 34.9601H17.1995C17.222 35.138 17.2781 35.3158 17.3792 35.4826C17.4802 35.6493 17.6374 35.7938 17.8283 35.905C18.0192 36.0162 18.255 36.0717 18.5357 36.0717C18.895 36.0717 19.1757 35.9828 19.3666 35.7827C19.5575 35.5826 19.6585 35.3492 19.6585 35.0491C19.6585 34.7934 19.5912 34.5822 19.4564 34.4266C19.3217 34.2709 19.1533 34.1375 18.9624 34.0486C18.7715 33.9597 18.4908 33.8596 18.1539 33.7485C17.7497 33.6151 17.4353 33.4928 17.1883 33.3816C16.9413 33.2705 16.7392 33.0926 16.5707 32.8592C16.4023 32.6258 16.3125 32.3256 16.3125 31.9477C16.3125 31.6253 16.3911 31.3363 16.5483 31.0806C16.7055 30.8361 16.93 30.636 17.2332 30.5026C17.5251 30.3692 17.8845 30.3025 18.2775 30.3025C18.895 30.3025 19.4003 30.447 19.7596 30.7471C20.1301 31.0473 20.3322 31.4252 20.3996 31.8921H19.5238C19.4789 31.6475 19.3441 31.4252 19.142 31.2362C18.9287 31.0473 18.648 30.9472 18.2887 30.9472C17.963 30.9472 17.6936 31.0362 17.5027 31.2029C17.3006 31.3696 17.2108 31.6142 17.2108 31.9143C17.2108 32.1589 17.2781 32.359 17.4017 32.5035C17.5364 32.6591 17.6936 32.7703 17.8845 32.8592C18.0753 32.9481 18.3448 33.0371 18.6704 33.1482C19.0747 33.2816 19.4003 33.4039 19.6585 33.5262C19.9056 33.6484 20.1189 33.8263 20.2873 34.0597C20.4557 34.2932 20.5456 34.6155 20.5456 35.0157C20.5231 35.3047 20.4558 35.5826 20.3098 35.8383Z" fill="#FF5196"/>
<path d="M24.6888 30.3691V36.6386H23.8691V30.3691H24.6888Z" fill="#FF5196"/>
<path d="M32.9742 30.8472C33.4795 31.214 33.8163 31.7031 33.9847 32.3256H33.1202C32.9742 31.9477 32.7159 31.6364 32.3679 31.4141C32.0198 31.1807 31.6043 31.0695 31.1215 31.0695C30.6948 31.0695 30.3018 31.1695 29.965 31.3696C29.6281 31.5697 29.3587 31.8476 29.1566 32.2145C28.9657 32.5813 28.8646 33.0148 28.8646 33.515C28.8646 34.0264 28.9657 34.471 29.1566 34.8379C29.3474 35.2047 29.6281 35.4937 29.9762 35.6938C30.3243 35.8939 30.7285 35.9939 31.1889 35.9939C31.5819 35.9939 31.9299 35.905 32.2556 35.7494C32.5812 35.5826 32.8394 35.3381 33.0528 35.0268C33.2661 34.7156 33.3784 34.3376 33.4233 33.9152H30.9306V33.315H34.1082V34.0597C34.0521 34.56 33.8949 35.0046 33.6367 35.4159C33.3784 35.8272 33.0303 36.1384 32.5924 36.3719C32.1545 36.6053 31.6605 36.7276 31.099 36.7276C30.4927 36.7276 29.9537 36.5942 29.4822 36.3274C29.0106 36.0606 28.6513 35.6827 28.393 35.1936C28.1347 34.7156 28 34.1598 28 33.5373C28 32.9148 28.1347 32.359 28.393 31.881C28.6513 31.403 29.0218 31.0139 29.4822 30.7471C29.9425 30.4804 30.4815 30.3358 31.0878 30.3358C31.8513 30.3136 32.4689 30.4915 32.9742 30.8472Z" fill="#FF5196"/>
<path d="M42.396 36.6386H41.5764L38.2864 31.6808V36.6386H37.4668V30.3691H38.2864L41.5764 35.3269V30.3691H42.396V36.6386Z" fill="#FF5196"/>
<path d="M54.2082 35.8385C54.0623 36.0942 53.8489 36.3054 53.557 36.4611C53.265 36.6167 52.9058 36.7056 52.4679 36.7056C52.0524 36.7056 51.6706 36.6278 51.345 36.4833C51.0194 36.3277 50.7611 36.1276 50.559 35.8608C50.3681 35.594 50.2559 35.2939 50.2222 34.9604H51.098C51.1204 35.1382 51.1766 35.3161 51.2776 35.4828C51.3787 35.6496 51.5359 35.7941 51.7267 35.9052C51.9176 36.0164 52.1534 36.072 52.4341 36.072C52.7934 36.072 53.0741 35.9831 53.265 35.783C53.4559 35.5829 53.557 35.3494 53.557 35.0493C53.557 34.7936 53.4896 34.5824 53.3549 34.4268C53.2201 34.2712 53.0517 34.1378 52.8608 34.0489C52.6699 33.9599 52.3893 33.8599 52.0524 33.7487C51.6482 33.6153 51.3337 33.4931 51.0867 33.3819C50.8397 33.2707 50.6376 33.0929 50.4692 32.8594C50.3007 32.626 50.2109 32.3259 50.2109 31.9479C50.2109 31.6255 50.2895 31.3365 50.4467 31.0809C50.6039 30.8363 50.8285 30.6362 51.1317 30.5028C51.4236 30.3694 51.7829 30.3027 52.1759 30.3027C52.7935 30.3027 53.2987 30.4472 53.6581 30.7474C54.0286 31.0475 54.2307 31.4255 54.2981 31.8923H53.4222C53.3773 31.6478 53.2426 31.4255 53.0404 31.2365C52.8271 31.0475 52.5465 30.9475 52.1871 30.9475C51.8615 30.9475 51.592 31.0364 51.4011 31.2031C51.199 31.3699 51.1092 31.6144 51.1092 31.9146C51.1092 32.1591 51.1765 32.3592 51.3001 32.5037C51.4348 32.6593 51.592 32.7705 51.7829 32.8594C51.9738 32.9484 52.2432 33.0373 52.5689 33.1485C52.9731 33.2818 53.2987 33.4041 53.557 33.5264C53.804 33.6487 54.0173 33.8265 54.1858 34.06C54.3542 34.2934 54.444 34.6158 54.444 35.016C54.4215 35.305 54.3542 35.5829 54.2082 35.8385Z" fill="#FF5196"/>
<path d="M61.6516 30.3691V31.025H59.8662V36.6386H59.0353V31.025H57.25V30.3691H61.6516Z" fill="#FF5196"/>
<path d="M65.471 30.3691V34.1264C65.471 34.7378 65.6057 35.1935 65.8864 35.4937C66.1672 35.7827 66.5377 35.9383 67.0318 35.9383C67.5146 35.9383 67.8851 35.7938 68.1546 35.4937C68.4241 35.1935 68.5588 34.7489 68.5588 34.1375V30.3803H69.3785V34.1375C69.3785 34.9934 69.1652 35.6382 68.7385 36.0606C68.3118 36.4941 67.7391 36.7053 67.0205 36.7053C66.3131 36.7053 65.7405 36.4941 65.3139 36.0606C64.8872 35.6271 64.6738 34.9934 64.6738 34.1375V30.3803H65.471V30.3691Z" fill="#FF5196"/>
<path d="M77.833 35.1602C77.5748 35.627 77.193 35.9939 76.6989 36.2496C76.1937 36.5052 75.5986 36.6386 74.9024 36.6386H72.8926V30.3691H74.9024C75.5986 30.3691 76.2049 30.4914 76.6989 30.7471C77.193 31.0028 77.5748 31.3585 77.833 31.8365C78.0913 32.3145 78.2148 32.8591 78.2148 33.5039C78.2148 34.1375 78.0913 34.6933 77.833 35.1602ZM76.7327 35.2825C77.1706 34.86 77.3839 34.2709 77.3839 33.5039C77.3839 32.7369 77.1706 32.1477 76.7327 31.7253C76.2948 31.3029 75.666 31.0917 74.8351 31.0917H73.701V35.9161H74.8351C75.6547 35.9161 76.2948 35.7049 76.7327 35.2825Z" fill="#FF5196"/>
<path d="M82.39 30.3691V36.6386H81.5703V30.3691H82.39Z" fill="#FF5196"/>
<path d="M90.4313 30.7028C90.9028 30.9807 91.2734 31.3586 91.5429 31.8478C91.8123 32.3369 91.9471 32.8927 91.9471 33.5041C91.9471 34.1154 91.8123 34.6712 91.5429 35.1603C91.2734 35.6495 90.9028 36.0274 90.4313 36.3053C89.9597 36.5832 89.4319 36.7166 88.848 36.7166C88.2641 36.7166 87.7252 36.5832 87.2536 36.3053C86.782 36.0274 86.4002 35.6495 86.1308 35.1603C85.8613 34.6712 85.7266 34.1154 85.7266 33.5041C85.7266 32.8927 85.8613 32.3369 86.1308 31.8478C86.4002 31.3586 86.7708 30.9807 87.2536 30.7028C87.7364 30.4249 88.2641 30.2915 88.848 30.2915C89.4319 30.2915 89.9597 30.4249 90.4313 30.7028ZM87.669 31.3475C87.321 31.5476 87.0515 31.8255 86.8606 32.2035C86.6698 32.5703 86.5687 33.0038 86.5687 33.5041C86.5687 33.9932 86.6698 34.4267 86.8606 34.8046C87.0515 35.1826 87.321 35.4605 87.669 35.6606C88.0171 35.8607 88.3989 35.9607 88.8368 35.9607C89.2635 35.9607 89.6565 35.8607 90.0046 35.6606C90.3526 35.4605 90.6221 35.1715 90.813 34.8046C91.0039 34.4378 91.1049 34.0043 91.1049 33.5152C91.1049 33.0149 91.0039 32.5814 90.813 32.2146C90.6221 31.8478 90.3526 31.5587 90.0046 31.3586C89.6565 31.1586 89.2747 31.0585 88.8368 31.0585C88.4101 31.0474 88.0171 31.1474 87.669 31.3475Z" fill="#FF5196"/>
</svg>
