<svg width="160" height="35" viewBox="0 0 160 35" fill="none" xmlns="http://www.w3.org/2000/svg">
<path d="M49.1836 17.172C50.3356 17.442 51.2446 18 51.9106 18.846C52.5946 19.692 52.9366 20.673 52.9366 21.789C52.9366 23.427 52.3876 24.705 51.2896 25.623C50.2096 26.541 48.6526 27 46.6186 27H37.7356V7.911H46.4026C48.3466 7.911 49.8496 8.334 50.9116 9.18C51.9736 10.026 52.5046 11.232 52.5046 12.798C52.5046 13.95 52.1986 14.913 51.5866 15.687C50.9746 16.443 50.1736 16.938 49.1836 17.172ZM42.3526 15.714H45.3766C46.9786 15.714 47.7796 15.03 47.7796 13.662C47.7796 12.294 46.9606 11.61 45.3226 11.61H42.3526V15.714ZM45.6466 23.247C47.3566 23.247 48.2116 22.545 48.2116 21.141C48.2116 20.457 47.9866 19.926 47.5366 19.548C47.0866 19.152 46.4476 18.954 45.6196 18.954H42.3526V23.247H45.6466ZM54.9432 7.695C54.9432 6.993 55.1952 6.417 55.6992 5.967C56.2032 5.499 56.8692 5.265 57.6972 5.265C58.5252 5.265 59.1912 5.499 59.6952 5.967C60.1992 6.417 60.4512 6.993 60.4512 7.695C60.4512 8.379 60.1992 8.955 59.6952 9.423C59.1912 9.873 58.5252 10.098 57.6972 10.098C56.8692 10.098 56.2032 9.873 55.6992 9.423C55.1952 8.955 54.9432 8.379 54.9432 7.695ZM59.9922 11.934V27H55.3752V11.934H59.9922ZM71.7119 23.031V27H69.6329C67.8689 27 66.4919 26.568 65.5019 25.704C64.5299 24.822 64.0439 23.373 64.0439 21.357V15.822H62.0189V11.934H64.0439V8.235H68.6609V11.934H71.6849V15.822H68.6609V21.438C68.6609 22.032 68.7779 22.446 69.0119 22.68C69.2639 22.914 69.6779 23.031 70.2539 23.031H71.7119ZM82.8389 23.031V27H80.7599C78.9959 27 77.6189 26.568 76.6289 25.704C75.6569 24.822 75.1709 23.373 75.1709 21.357V15.822H73.1459V11.934H75.1709V8.235H79.7879V11.934H82.8119V15.822H79.7879V21.438C79.7879 22.032 79.9049 22.446 80.1389 22.68C80.3909 22.914 80.8049 23.031 81.3809 23.031H82.8389ZM92.4808 11.745C93.9748 11.745 95.3068 12.06 96.4768 12.69C97.6648 13.302 98.5918 14.193 99.2578 15.363C99.9418 16.533 100.284 17.901 100.284 19.467C100.284 21.033 99.9418 22.401 99.2578 23.571C98.5918 24.741 97.6648 25.641 96.4768 26.271C95.3068 26.883 93.9748 27.189 92.4808 27.189C90.9868 27.189 89.6458 26.883 88.4578 26.271C87.2698 25.641 86.3338 24.741 85.6498 23.571C84.9838 22.401 84.6508 21.033 84.6508 19.467C84.6508 17.901 84.9838 16.533 85.6498 15.363C86.3338 14.193 87.2698 13.302 88.4578 12.69C89.6458 12.06 90.9868 11.745 92.4808 11.745ZM92.4808 15.741C91.5988 15.741 90.8518 16.065 90.2398 16.713C89.6458 17.343 89.3488 18.261 89.3488 19.467C89.3488 20.673 89.6458 21.591 90.2398 22.221C90.8518 22.851 91.5988 23.166 92.4808 23.166C93.3628 23.166 94.1008 22.851 94.6948 22.221C95.2888 21.591 95.5858 20.673 95.5858 19.467C95.5858 18.261 95.2888 17.343 94.6948 16.713C94.1008 16.065 93.3628 15.741 92.4808 15.741ZM107.295 14.769C107.871 13.851 108.609 13.122 109.509 12.582C110.427 12.042 111.417 11.772 112.479 11.772V16.713H111.156C109.932 16.713 108.978 16.974 108.294 17.496C107.628 18.018 107.295 18.9 107.295 20.142V27H102.678V11.934H107.295V14.769ZM128.721 19.062C128.721 19.44 128.676 19.854 128.586 20.304H118.137C118.191 21.438 118.479 22.257 119.001 22.761C119.523 23.247 120.189 23.49 120.999 23.49C121.683 23.49 122.25 23.319 122.7 22.977C123.15 22.635 123.447 22.194 123.591 21.654H128.478C128.28 22.716 127.848 23.67 127.182 24.516C126.516 25.344 125.67 26.001 124.644 26.487C123.618 26.955 122.475 27.189 121.215 27.189C119.739 27.189 118.425 26.883 117.273 26.271C116.139 25.641 115.248 24.741 114.6 23.571C113.952 22.401 113.628 21.033 113.628 19.467C113.628 17.883 113.943 16.515 114.573 15.363C115.221 14.193 116.121 13.302 117.273 12.69C118.425 12.06 119.739 11.745 121.215 11.745C122.709 11.745 124.023 12.051 125.157 12.663C126.291 13.275 127.164 14.139 127.776 15.255C128.406 16.353 128.721 17.622 128.721 19.062ZM124.05 18.36C124.068 17.37 123.798 16.632 123.24 16.146C122.7 15.642 122.025 15.39 121.215 15.39C120.369 15.39 119.667 15.642 119.109 16.146C118.551 16.65 118.236 17.388 118.164 18.36H124.05ZM140.686 11.772C142.414 11.772 143.782 12.348 144.79 13.5C145.816 14.652 146.329 16.236 146.329 18.252V27H141.712V18.792C141.712 17.784 141.442 17.001 140.902 16.443C140.38 15.867 139.678 15.579 138.796 15.579C137.86 15.579 137.113 15.876 136.555 16.47C136.015 17.064 135.745 17.91 135.745 19.008V27H131.128V11.934H135.745V14.688C136.177 13.788 136.816 13.077 137.662 12.555C138.526 12.033 139.534 11.772 140.686 11.772ZM157.906 23.031V27H155.827C154.063 27 152.686 26.568 151.696 25.704C150.724 24.822 150.238 23.373 150.238 21.357V15.822H148.213V11.934H150.238V8.235H154.855V11.934H157.879V15.822H154.855V21.438C154.855 22.032 154.972 22.446 155.206 22.68C155.458 22.914 155.872 23.031 156.448 23.031H157.906Z" fill="#263238"/>
<rect x="0.142578" y="3" width="9" height="9" fill="#3EBA59"/>
<rect x="0.142578" y="12" width="9" height="10" fill="#83EBFF"/>
<rect x="0.142578" y="22" width="9" height="9" fill="#20C1E1"/>
<rect x="9.14258" y="3" width="10" height="9" fill="#83EBFF"/>
<rect x="9.14258" y="22" width="10" height="9" fill="#83EBFF"/>
<rect x="19.1426" y="3" width="9" height="9" fill="#20C1E1"/>
<rect x="19.1426" y="12" width="9" height="10" fill="#83EBFF"/>
<rect x="19.1426" y="22" width="9" height="9" fill="#3EBA59"/>
<rect x="5.14258" y="8" width="18" height="18" fill="white"/>
</svg>
