<svg width="127" height="39" viewBox="0 0 127 39" fill="none" xmlns="http://www.w3.org/2000/svg">
<path d="M12.0226 31.42C8.64258 31.42 6.06258 30.48 4.28258 28.6C2.52258 26.72 1.64258 24.05 1.64258 20.59C1.64258 18.87 1.91258 17.34 2.45258 16C2.99258 14.64 3.73258 13.5 4.67258 12.58C5.61258 11.64 6.73258 10.93 8.03258 10.45C9.33258 9.97 10.7426 9.73 12.2626 9.73C13.1426 9.73 13.9426 9.8 14.6626 9.94C15.3826 10.06 16.0126 10.21 16.5526 10.39C17.0926 10.55 17.5426 10.72 17.9026 10.9C18.2626 11.08 18.5226 11.22 18.6826 11.32L17.3326 15.1C16.6926 14.76 15.9426 14.47 15.0826 14.23C14.2426 13.99 13.2826 13.87 12.2026 13.87C11.4826 13.87 10.7726 13.99 10.0726 14.23C9.39258 14.47 8.78258 14.86 8.24258 15.4C7.72258 15.92 7.30258 16.6 6.98258 17.44C6.66258 18.28 6.50258 19.3 6.50258 20.5C6.50258 21.46 6.60258 22.36 6.80258 23.2C7.02258 24.02 7.36258 24.73 7.82258 25.33C8.30258 25.93 8.92258 26.41 9.68258 26.77C10.4426 27.11 11.3626 27.28 12.4426 27.28C13.1226 27.28 13.7326 27.24 14.2726 27.16C14.8126 27.08 15.2926 26.99 15.7126 26.89C16.1326 26.77 16.5026 26.64 16.8226 26.5C17.1426 26.36 17.4326 26.23 17.6926 26.11L18.9826 29.86C18.3226 30.26 17.3926 30.62 16.1926 30.94C14.9926 31.26 13.6026 31.42 12.0226 31.42ZM31.2057 19.18C30.8057 19.08 30.3357 18.98 29.7957 18.88C29.2557 18.76 28.6757 18.7 28.0557 18.7C27.7757 18.7 27.4357 18.73 27.0357 18.79C26.6557 18.83 26.3657 18.88 26.1657 18.94V31H21.6957V16.06C22.4957 15.78 23.4357 15.52 24.5157 15.28C25.6157 15.02 26.8357 14.89 28.1757 14.89C28.4157 14.89 28.7057 14.91 29.0457 14.95C29.3857 14.97 29.7257 15.01 30.0657 15.07C30.4057 15.11 30.7457 15.17 31.0857 15.25C31.4257 15.31 31.7157 15.39 31.9557 15.49L31.2057 19.18ZM48.819 23.08C48.819 24.32 48.639 25.46 48.279 26.5C47.919 27.52 47.399 28.4 46.719 29.14C46.039 29.86 45.219 30.42 44.259 30.82C43.319 31.22 42.259 31.42 41.079 31.42C39.919 31.42 38.859 31.22 37.899 30.82C36.959 30.42 36.149 29.86 35.469 29.14C34.789 28.4 34.259 27.52 33.879 26.5C33.499 25.46 33.309 24.32 33.309 23.08C33.309 21.84 33.499 20.71 33.879 19.69C34.279 18.67 34.819 17.8 35.499 17.08C36.199 16.36 37.019 15.8 37.959 15.4C38.919 15 39.959 14.8 41.079 14.8C42.219 14.8 43.259 15 44.199 15.4C45.159 15.8 45.979 16.36 46.659 17.08C47.339 17.8 47.869 18.67 48.249 19.69C48.629 20.71 48.819 21.84 48.819 23.08ZM44.259 23.08C44.259 21.7 43.979 20.62 43.419 19.84C42.879 19.04 42.099 18.64 41.079 18.64C40.059 18.64 39.269 19.04 38.709 19.84C38.149 20.62 37.869 21.7 37.869 23.08C37.869 24.46 38.149 25.56 38.709 26.38C39.269 27.18 40.059 27.58 41.079 27.58C42.099 27.58 42.879 27.18 43.419 26.38C43.979 25.56 44.259 24.46 44.259 23.08ZM56.8116 27.79C57.6316 27.79 58.2116 27.71 58.5516 27.55C58.8916 27.39 59.0616 27.08 59.0616 26.62C59.0616 26.26 58.8416 25.95 58.4016 25.69C57.9616 25.41 57.2916 25.1 56.3916 24.76C55.6916 24.5 55.0516 24.23 54.4716 23.95C53.9116 23.67 53.4316 23.34 53.0316 22.96C52.6316 22.56 52.3216 22.09 52.1016 21.55C51.8816 21.01 51.7716 20.36 51.7716 19.6C51.7716 18.12 52.3216 16.95 53.4216 16.09C54.5216 15.23 56.0316 14.8 57.9516 14.8C58.9116 14.8 59.8316 14.89 60.7116 15.07C61.5916 15.23 62.2916 15.41 62.8116 15.61L62.0316 19.09C61.5116 18.91 60.9416 18.75 60.3216 18.61C59.7216 18.47 59.0416 18.4 58.2816 18.4C56.8816 18.4 56.1816 18.79 56.1816 19.57C56.1816 19.75 56.2116 19.91 56.2716 20.05C56.3316 20.19 56.4516 20.33 56.6316 20.47C56.8116 20.59 57.0516 20.73 57.3516 20.89C57.6716 21.03 58.0716 21.19 58.5516 21.37C59.5316 21.73 60.3416 22.09 60.9816 22.45C61.6216 22.79 62.1216 23.17 62.4816 23.59C62.8616 23.99 63.1216 24.44 63.2616 24.94C63.4216 25.44 63.5016 26.02 63.5016 26.68C63.5016 28.24 62.9116 29.42 61.7316 30.22C60.5716 31.02 58.9216 31.42 56.7816 31.42C55.3816 31.42 54.2116 31.3 53.2716 31.06C52.3516 30.82 51.7116 30.62 51.3516 30.46L52.1016 26.83C52.8616 27.13 53.6416 27.37 54.4416 27.55C55.2416 27.71 56.0316 27.79 56.8116 27.79ZM71.3722 27.79C72.1922 27.79 72.7722 27.71 73.1122 27.55C73.4522 27.39 73.6222 27.08 73.6222 26.62C73.6222 26.26 73.4022 25.95 72.9622 25.69C72.5222 25.41 71.8522 25.1 70.9522 24.76C70.2522 24.5 69.6122 24.23 69.0322 23.95C68.4722 23.67 67.9922 23.34 67.5922 22.96C67.1922 22.56 66.8822 22.09 66.6622 21.55C66.4422 21.01 66.3322 20.36 66.3322 19.6C66.3322 18.12 66.8822 16.95 67.9822 16.09C69.0822 15.23 70.5922 14.8 72.5122 14.8C73.4722 14.8 74.3922 14.89 75.2722 15.07C76.1522 15.23 76.8522 15.41 77.3722 15.61L76.5922 19.09C76.0722 18.91 75.5022 18.75 74.8822 18.61C74.2822 18.47 73.6022 18.4 72.8422 18.4C71.4422 18.4 70.7422 18.79 70.7422 19.57C70.7422 19.75 70.7722 19.91 70.8322 20.05C70.8922 20.19 71.0122 20.33 71.1922 20.47C71.3722 20.59 71.6122 20.73 71.9122 20.89C72.2322 21.03 72.6322 21.19 73.1122 21.37C74.0922 21.73 74.9022 22.09 75.5422 22.45C76.1822 22.79 76.6822 23.17 77.0422 23.59C77.4222 23.99 77.6822 24.44 77.8222 24.94C77.9822 25.44 78.0622 26.02 78.0622 26.68C78.0622 28.24 77.4722 29.42 76.2922 30.22C75.1322 31.02 73.4822 31.42 71.3422 31.42C69.9422 31.42 68.7722 31.3 67.8322 31.06C66.9122 30.82 66.2722 30.62 65.9122 30.46L66.6622 26.83C67.4222 27.13 68.2022 27.37 69.0022 27.55C69.8022 27.71 70.5922 27.79 71.3722 27.79ZM80.0527 20.02H88.7527V24.07H80.0527V20.02Z" fill="#263238"/>
<path d="M103.838 31C103.258 29.84 102.618 28.67 101.918 27.49C101.238 26.29 100.448 25.07 99.548 23.83C99.268 24.19 98.908 24.69 98.468 25.33C98.048 25.97 97.618 26.65 97.178 27.37C96.758 28.09 96.358 28.78 95.978 29.44C95.598 30.1 95.318 30.62 95.138 31H89.798C90.678 29.38 91.698 27.68 92.858 25.9C94.038 24.12 95.348 22.23 96.788 20.23L90.098 10.21H95.768L99.818 16.69L103.778 10.21H109.118L102.518 20.29C104.198 22.47 105.608 24.49 106.748 26.35C107.888 28.19 108.788 29.74 109.448 31H103.838ZM125.12 15.22C124.22 18.26 123.28 21.11 122.3 23.77C121.32 26.43 120.25 29.01 119.09 31.51C118.67 32.41 118.25 33.17 117.83 33.79C117.41 34.43 116.95 34.95 116.45 35.35C115.95 35.77 115.38 36.07 114.74 36.25C114.12 36.45 113.39 36.55 112.55 36.55C111.85 36.55 111.2 36.48 110.6 36.34C110.02 36.22 109.54 36.08 109.16 35.92L109.94 32.35C110.4 32.51 110.81 32.62 111.17 32.68C111.53 32.74 111.91 32.77 112.31 32.77C113.11 32.77 113.72 32.55 114.14 32.11C114.58 31.69 114.95 31.1 115.25 30.34C114.23 28.34 113.21 26.1 112.19 23.62C111.17 21.12 110.21 18.32 109.31 15.22H114.05C114.25 16 114.48 16.85 114.74 17.77C115.02 18.67 115.31 19.59 115.61 20.53C115.91 21.45 116.21 22.35 116.51 23.23C116.83 24.11 117.13 24.91 117.41 25.63C117.67 24.91 117.94 24.11 118.22 23.23C118.5 22.35 118.77 21.45 119.03 20.53C119.31 19.59 119.57 18.67 119.81 17.77C120.07 16.85 120.3 16 120.5 15.22H125.12Z" fill="#7782FF"/>
</svg>
