<svg width="115" height="35" viewBox="0 0 115 35" fill="none" xmlns="http://www.w3.org/2000/svg">
<path d="M32.9072 16.5283C32.9688 15.9307 32.9995 15.2451 32.9995 14.4717C32.9995 13.2412 32.9336 11.7119 32.8018 9.88379C34.4453 9.93652 37.2271 9.96289 41.147 9.96289C45.0669 9.96289 47.8398 9.93652 49.4658 9.88379C49.334 11.7119 49.2681 13.2412 49.2681 14.4717C49.2681 15.2451 49.2988 15.9307 49.3604 16.5283H48.7407C48.4419 15.0254 48.0771 13.8389 47.6465 12.9688C47.2158 12.0898 46.6973 11.4614 46.0908 11.0835C45.4932 10.6968 44.7637 10.5034 43.9023 10.5034H43.2827V25.9282C43.2827 26.6753 43.3574 27.2202 43.5068 27.563C43.665 27.9058 43.9375 28.1387 44.3242 28.2617C44.7197 28.3848 45.335 28.4507 46.1699 28.4595V29C43.9023 28.9473 42.1929 28.9209 41.0415 28.9209C39.9077 28.9209 38.2598 28.9473 36.0977 29V28.4595C36.9414 28.4507 37.5566 28.3848 37.9434 28.2617C38.3389 28.1387 38.6113 27.9058 38.7607 27.563C38.9102 27.2202 38.9849 26.6753 38.9849 25.9282V10.5034H38.3916C37.5215 10.5034 36.7832 10.6924 36.1768 11.0703C35.5791 11.4482 35.0649 12.0767 34.6343 12.9556C34.2036 13.8257 33.8345 15.0166 33.5269 16.5283H32.9072ZM57.5737 17.6094C57.5737 16.8623 57.3936 16.2734 57.0332 15.8428C56.6816 15.4121 56.1279 15.1968 55.3721 15.1968C55.0205 15.1968 54.6689 15.2539 54.3174 15.3682C53.9658 15.4736 53.6758 15.6362 53.4473 15.856C53.9482 16.0229 54.3394 16.2866 54.6206 16.647C54.9019 16.9985 55.0425 17.4424 55.0425 17.9785C55.0425 18.3477 54.9502 18.6816 54.7656 18.9805C54.5898 19.2705 54.335 19.5034 54.001 19.6792C53.667 19.8462 53.2847 19.9297 52.854 19.9297C52.2739 19.9297 51.8081 19.7319 51.4565 19.3364C51.1138 18.9409 50.9424 18.4443 50.9424 17.8467C50.9424 16.915 51.4434 16.1592 52.4453 15.5791C53.5439 14.9727 54.915 14.6694 56.5586 14.6694C58.4043 14.6694 59.7183 15.0737 60.5005 15.8823C60.8784 16.2603 61.1333 16.7305 61.2651 17.293C61.397 17.8555 61.4629 18.6421 61.4629 19.6528V26.9961C61.4629 27.4355 61.5024 27.7476 61.5815 27.9321C61.6694 28.1079 61.8188 28.1958 62.0298 28.1958C62.3198 28.1958 62.6538 28.042 63.0317 27.7344L63.3086 28.1958C62.8955 28.5386 62.4473 28.7891 61.9639 28.9473C61.4805 29.1055 60.9004 29.1846 60.2236 29.1846C59.3096 29.1846 58.6504 28.9824 58.2461 28.5781C57.8418 28.1738 57.6396 27.6465 57.6396 26.9961C57.2002 27.7256 56.6245 28.2749 55.9126 28.644C55.2007 29.0044 54.4404 29.1846 53.6318 29.1846C52.6035 29.1846 51.7773 28.9165 51.1533 28.3804C50.5381 27.8354 50.2305 27.0796 50.2305 26.1128C50.2305 25.1724 50.5381 24.3945 51.1533 23.7793C51.7686 23.1641 52.7222 22.6191 54.0142 22.1445C54.1548 22.0918 54.6118 21.9204 55.3853 21.6304C56.1587 21.3315 56.7168 21.0283 57.0596 20.7207C57.4023 20.4131 57.5737 20.0747 57.5737 19.7056V17.6094ZM57.5737 20.813C57.4595 21.0063 57.2705 21.2085 57.0068 21.4194C56.752 21.6216 56.3828 21.8721 55.8994 22.1709C55.3281 22.5664 54.8799 23.0146 54.5547 23.5156C54.2295 24.0078 54.0669 24.623 54.0669 25.3613C54.0669 26.0645 54.2207 26.5918 54.5283 26.9434C54.8359 27.2861 55.2402 27.4575 55.7412 27.4575C56.4531 27.4575 57.064 27.0884 57.5737 26.3501V20.813ZM69.7158 17.2534C70.0586 16.4888 70.5508 15.8691 71.1924 15.3945C71.8428 14.9111 72.5767 14.6694 73.394 14.6694C73.939 14.6694 74.396 14.7881 74.7651 15.0254C75.1343 15.2627 75.4067 15.5703 75.5825 15.9482C75.7583 16.3174 75.8462 16.7173 75.8462 17.1479C75.8462 17.8159 75.6528 18.3608 75.2661 18.7827C74.8794 19.2046 74.3696 19.4155 73.7368 19.4155C73.1216 19.4155 72.6338 19.2617 72.2734 18.9541C71.9219 18.6377 71.7461 18.2158 71.7461 17.6885C71.7461 16.8271 72.1416 16.124 72.9326 15.5791C72.8184 15.5527 72.7085 15.5396 72.603 15.5396C72.48 15.5396 72.3394 15.5615 72.1812 15.6055C71.7241 15.6758 71.3066 15.8955 70.9287 16.2646C70.5508 16.625 70.252 17.0601 70.0322 17.5698C69.8213 18.0796 69.7158 18.5762 69.7158 19.0596V26.2183C69.7158 27.0532 69.918 27.6333 70.3223 27.9585C70.7266 28.2749 71.3726 28.4331 72.2603 28.4331V29C70.0103 28.9297 68.5776 28.8945 67.9624 28.8945C67.3911 28.8945 66.1035 28.9297 64.0996 29V28.4331C64.5303 28.4331 64.8687 28.376 65.1147 28.2617C65.3696 28.1475 65.5498 27.9497 65.6553 27.6685C65.7695 27.3872 65.8267 26.9961 65.8267 26.4951V17.9785C65.8267 17.1436 65.6992 16.5415 65.4443 16.1724C65.1895 15.7944 64.7412 15.6055 64.0996 15.6055V15.0386C64.6709 15.0913 65.229 15.1177 65.7739 15.1177C67.3647 15.1177 68.6787 14.9946 69.7158 14.7485V17.2534ZM86.749 25.5459C87.8301 25.5459 88.7046 25.7744 89.3726 26.2314C90.0493 26.6797 90.3877 27.4136 90.3877 28.4331C90.3877 29.356 90.0977 30.248 89.5176 31.1094C88.9375 31.9795 88.0586 32.6914 86.8809 33.2451C85.7031 33.7988 84.2661 34.0757 82.5698 34.0757C81.2515 34.0757 80.144 33.9702 79.2476 33.7593C78.3599 33.5571 77.6963 33.2803 77.2568 32.9287C76.8174 32.5771 76.5977 32.1772 76.5977 31.729C76.5977 31.2456 76.7778 30.8853 77.1382 30.6479C77.5073 30.4106 78.105 30.1602 78.9312 29.8965C79.7573 29.6328 80.3418 29.3779 80.6846 29.1318H80.0518C79.3047 29.1318 78.6147 28.9517 77.9819 28.5913C77.3491 28.231 77.0327 27.5762 77.0327 26.627C77.0327 26.1084 77.1382 25.6426 77.3491 25.2295C77.5688 24.8076 77.9248 24.4077 78.417 24.0298C78.918 23.6431 79.5903 23.2476 80.4341 22.8433C79.5112 22.5269 78.7905 22.0479 78.272 21.4062C77.7534 20.7559 77.4941 19.9385 77.4941 18.9541C77.4941 17.5303 78.0215 16.4624 79.0762 15.7505C80.1396 15.0298 81.5459 14.6694 83.2949 14.6694C84.0156 14.6694 84.6836 14.731 85.2988 14.854C85.2725 14.397 85.3076 13.9443 85.4043 13.4961C85.4922 12.749 85.7471 12.1514 86.1689 11.7031C86.5908 11.2461 87.1885 11.0176 87.9619 11.0176C88.5332 11.0176 89.0034 11.1714 89.3726 11.479C89.7505 11.7778 89.9395 12.1733 89.9395 12.6655C89.9395 13.1226 89.7593 13.5005 89.3989 13.7993C89.0474 14.0894 88.6035 14.2344 88.0674 14.2344C87.5225 14.2344 87.0962 14.1069 86.7886 13.8521C86.481 13.5972 86.2437 13.2192 86.0767 12.7183C85.8833 13.0435 85.7471 13.5049 85.668 14.1025C85.6592 14.1904 85.6548 14.3223 85.6548 14.498C85.6548 14.6914 85.6592 14.8364 85.668 14.9331C86.7402 15.2056 87.5796 15.6802 88.186 16.3569C88.7925 17.0249 89.0957 17.8906 89.0957 18.9541C89.0957 19.9121 88.8452 20.7119 88.3442 21.3535C87.8521 21.9951 87.1709 22.4741 86.3008 22.7905C85.4307 23.0981 84.4287 23.252 83.2949 23.252C82.4424 23.252 81.6646 23.1641 80.9614 22.9883C80.4429 23.2871 80.0562 23.5596 79.8013 23.8057C79.5552 24.0518 79.4321 24.333 79.4321 24.6494C79.4321 25.2471 79.7925 25.5459 80.5132 25.5459H86.749ZM83.2949 15.144C82.7061 15.144 82.2578 15.4341 81.9502 16.0142C81.6426 16.5942 81.4888 17.5742 81.4888 18.9541C81.4888 20.334 81.6426 21.314 81.9502 21.894C82.2578 22.4741 82.7061 22.7642 83.2949 22.7642C83.8926 22.7642 84.3408 22.4741 84.6396 21.894C84.9473 21.314 85.1011 20.334 85.1011 18.9541C85.1011 17.5742 84.9473 16.5942 84.6396 16.0142C84.3408 15.4341 83.8926 15.144 83.2949 15.144ZM81.1987 29.1318C80.8999 29.4131 80.667 29.7603 80.5 30.1733C80.3418 30.5864 80.2627 30.96 80.2627 31.2939C80.2627 32.041 80.5439 32.6123 81.1064 33.0078C81.6777 33.4121 82.4072 33.6143 83.2949 33.6143C84.0244 33.6143 84.7012 33.478 85.3252 33.2056C85.958 32.9419 86.459 32.5552 86.8281 32.0454C87.2061 31.5356 87.395 30.9424 87.395 30.2656C87.395 29.8789 87.2808 29.5933 87.0522 29.4087C86.8237 29.2241 86.415 29.1318 85.8262 29.1318H81.1987ZM95.8325 20.6548C95.8062 20.9185 95.793 21.3403 95.793 21.9204C95.793 23.1157 95.96 24.1089 96.2939 24.8999C96.6279 25.6821 97.0586 26.2578 97.5859 26.627C98.1221 26.9873 98.6934 27.1675 99.2998 27.1675C100.785 27.1675 101.976 26.4468 102.873 25.0054L103.347 25.1636C103.119 25.9019 102.763 26.5918 102.279 27.2334C101.805 27.8662 101.198 28.3848 100.46 28.7891C99.7305 29.1846 98.8955 29.3823 97.9551 29.3823C96.7158 29.3823 95.626 29.1187 94.6855 28.5913C93.7539 28.064 93.0244 27.2642 92.4971 26.1919C91.9785 25.1108 91.7192 23.7705 91.7192 22.1709C91.7192 20.5361 92.0005 19.1606 92.563 18.0444C93.1255 16.9194 93.9033 16.0757 94.8965 15.5132C95.8896 14.9507 97.0366 14.6694 98.3374 14.6694C101.721 14.6694 103.413 16.6646 103.413 20.6548H95.8325ZM100.012 20.1406C100.038 18.7344 99.8931 17.5654 99.5767 16.6338C99.269 15.7021 98.7988 15.2363 98.166 15.2363C97.5244 15.2363 96.9883 15.6362 96.5576 16.436C96.1357 17.2271 95.8765 18.4619 95.7798 20.1406H100.012ZM113.657 15.0649V15.6055H110.466V26.4951C110.466 27.0312 110.563 27.4136 110.756 27.6421C110.95 27.8618 111.249 27.9717 111.653 27.9717C112.417 27.9717 113.028 27.4312 113.485 26.3501L113.947 26.6006C113.27 28.4551 112.04 29.3823 110.255 29.3823C109.069 29.3823 108.168 29.0747 107.553 28.4595C107.175 28.0903 106.916 27.6245 106.775 27.062C106.643 26.4907 106.577 25.7041 106.577 24.7021V15.6055H104.31V15.0649H106.577V11.479C108.062 11.479 109.359 11.189 110.466 10.6089V15.0649H113.657Z" fill="#263238"/>
<rect x="0.142578" y="4" width="28" height="28" rx="5" fill="#FFB6D3"/>
<circle cx="14.1426" cy="18" r="5" fill="#FF5196"/>
<path d="M14.1426 11.6V10M14.1426 26V24.4M20.5426 18H22.1426M6.14258 18H7.74258M14.1426 12.24C13.0034 12.24 11.8897 12.5778 10.9425 13.2107C9.99527 13.8437 9.25699 14.7432 8.82103 15.7957C8.38507 16.8482 8.271 18.0064 8.49325 19.1237C8.71551 20.2411 9.26409 21.2674 10.0696 22.0729C10.8752 22.8785 11.9015 23.4271 13.0189 23.6493C14.1362 23.8716 15.2943 23.7575 16.3468 23.3215C17.3993 22.8856 18.2989 22.1473 18.9318 21.2001C19.5648 20.2529 19.9026 19.1392 19.9026 18C19.9026 16.4724 19.2957 15.0073 18.2155 13.9271C17.1353 12.8469 15.6702 12.24 14.1426 12.24Z" stroke="white" stroke-width="2" stroke-linecap="square" stroke-linejoin="round"/>
</svg>
