<svg width="70" height="70" viewBox="0 0 70 70" fill="none" xmlns="http://www.w3.org/2000/svg">
<mask id="mask0_368_132" style="mask-type:alpha" maskUnits="userSpaceOnUse" x="0" y="0" width="70" height="70">
<rect width="70" height="70" fill="white"/>
</mask>
<g mask="url(#mask0_368_132)">
<circle cx="44.3848" cy="45.3844" r="21.5" fill="#B1E8F2"/>
<path d="M29.8848 43.2594C36.7193 43.2594 42.2598 37.7189 42.2598 30.8844C42.2598 24.0499 36.7193 18.5094 29.8848 18.5094C23.0502 18.5094 17.5098 24.0499 17.5098 30.8844C17.5098 37.7189 23.0502 43.2594 29.8848 43.2594Z" stroke="#393939" stroke-width="3" stroke-linecap="round" stroke-linejoin="round"/>
<path d="M44.2445 14.668C44.8977 15.2695 45.5164 15.8883 46.1008 16.5242L53.1391 17.5297C54.2859 19.5213 55.1698 21.6531 55.7687 23.8719L51.4891 29.5695C51.4891 29.5695 51.5664 31.3227 51.4891 32.1992L55.7687 37.8969C55.1726 40.1166 54.2885 42.2487 53.1391 44.2391L46.1008 45.2445C46.1008 45.2445 44.8891 46.5078 44.2445 47.1008L43.2391 54.1391C41.2474 55.2859 39.1156 56.1698 36.8969 56.7687L31.1992 52.4891C30.3244 52.5664 29.4444 52.5664 28.5695 52.4891L22.8719 56.7687C20.6522 56.1726 18.52 55.2885 16.5297 54.1391L15.5242 47.1008C14.8883 46.4992 14.2695 45.8805 13.668 45.2445L6.62969 44.2391C5.48289 42.2474 4.59897 40.1156 4 37.8969L8.27969 32.1992C8.27969 32.1992 8.20234 30.4461 8.27969 29.5695L4 23.8719C4.5962 21.6522 5.48026 19.52 6.62969 17.5297L13.668 16.5242C14.2695 15.8883 14.8883 15.2695 15.5242 14.668L16.5297 7.62969C18.5213 6.48289 20.6531 5.59897 22.8719 5L28.5695 9.27969C29.4444 9.20233 30.3244 9.20233 31.1992 9.27969L36.8969 5C39.1166 5.5962 41.2487 6.48026 43.2391 7.62969L44.2445 14.668Z" stroke="#393939" stroke-width="3" stroke-linecap="round" stroke-linejoin="round"/>
</g>
</svg>
