<svg width="70" height="70" viewBox="0 0 70 70" fill="none" xmlns="http://www.w3.org/2000/svg">
<mask id="mask0_368_132" style="mask-type:alpha" maskUnits="userSpaceOnUse" x="0" y="0" width="70" height="70">
<rect width="70" height="70" fill="white"/>
</mask>
<g mask="url(#mask0_368_132)">
<circle cx="45.5" cy="45.5" r="21.5" fill="#F5C9E9"/>
<path d="M11.5048 54.4952C8.93942 51.9298 10.6404 46.5481 9.32981 43.3971C8.01923 40.2462 3 37.4856 3 34C3 30.5144 7.96346 27.8654 9.32981 24.6029C10.6962 21.3404 8.93942 16.0702 11.5048 13.5048C14.0702 10.9394 19.4519 12.6404 22.6029 11.3298C25.7538 10.0192 28.5144 5 32 5C35.4856 5 38.1346 9.96346 41.3971 11.3298C44.6596 12.6962 49.9298 10.9394 52.4952 13.5048C55.0606 16.0702 53.3596 21.4519 54.6702 24.6029C55.9808 27.7538 61 30.5144 61 34C61 37.4856 56.0365 40.1346 54.6702 43.3971C53.3038 46.6596 55.0606 51.9298 52.4952 54.4952C49.9298 57.0606 44.5481 55.3596 41.3971 56.6702C38.2462 57.9808 35.4856 63 32 63C28.5144 63 25.8654 58.0365 22.6029 56.6702C19.3404 55.3038 14.0702 57.0606 11.5048 54.4952Z" stroke="#303030" stroke-width="3" stroke-linecap="round" stroke-linejoin="round"/>
<path d="M44 27L27.9909 43L20 35" stroke="#303030" stroke-width="3" stroke-linecap="round" stroke-linejoin="round"/>
</g>
</svg>
