<svg width="27" height="20" viewBox="0 0 27 20" fill="none" xmlns="http://www.w3.org/2000/svg">
<path d="M26.7158 4.59024C26.7158 2.36374 25.0347 0.572645 22.9575 0.572645C20.1438 0.444497 17.2743 0.39502 14.3418 0.39502H13.4277C10.5023 0.39502 7.62772 0.444497 4.81409 0.57314C2.74195 0.57314 1.06088 2.37413 1.06088 4.60063C0.933909 6.36155 0.880074 8.12296 0.883121 9.88437C0.878043 11.6458 0.935602 13.4088 1.0558 15.1735C1.0558 17.4001 2.73687 19.206 4.80901 19.206C7.76485 19.3396 10.7969 19.399 13.8797 19.394C16.9676 19.4039 19.9911 19.3412 22.9504 19.206C25.0276 19.206 26.7086 17.4001 26.7086 15.1735C26.8305 13.4072 26.8864 11.6458 26.8813 9.87942C26.8928 8.11801 26.8376 6.35495 26.7158 4.59024ZM11.3962 14.7381V5.01575L18.7604 9.87448L11.3962 14.7381Z" fill="white"/>
</svg>
