<svg width="23" height="22" viewBox="0 0 23 22" fill="none" xmlns="http://www.w3.org/2000/svg">
<path d="M15.766 2.17973C16.9948 2.18326 18.1723 2.65455 19.0411 3.49067C19.91 4.32679 20.3998 5.45979 20.4035 6.64223V15.5663C20.3998 16.7487 19.91 17.8817 19.0411 18.7178C18.1723 19.554 16.9948 20.0252 15.766 20.0288H6.49213C5.26333 20.0252 4.08591 19.554 3.21701 18.7178C2.34812 17.8817 1.85835 16.7487 1.85468 15.5663V6.64223C1.85835 5.45979 2.34812 4.32679 3.21701 3.49067C4.08591 2.65455 5.26333 2.18326 6.49213 2.17973H15.766ZM15.766 0.39502H6.49213C2.92138 0.39502 0 3.20619 0 6.64223V15.5663C0 19.0023 2.92138 21.8135 6.49213 21.8135H15.766C19.3368 21.8135 22.2582 19.0023 22.2582 15.5663V6.64223C22.2582 3.20619 19.3368 0.39502 15.766 0.39502Z" fill="white"/>
<path d="M17.1571 6.64264C16.8819 6.64264 16.613 6.56413 16.3842 6.41704C16.1554 6.26994 15.9771 6.06087 15.8718 5.81627C15.7665 5.57166 15.739 5.3025 15.7927 5.04283C15.8464 4.78316 15.9788 4.54463 16.1734 4.35742C16.368 4.1702 16.6158 4.04271 16.8857 3.99105C17.1555 3.9394 17.4352 3.96591 17.6894 4.06723C17.9436 4.16855 18.1609 4.34013 18.3138 4.56027C18.4666 4.78041 18.5482 5.03923 18.5482 5.30399C18.5486 5.47989 18.5129 5.65413 18.4431 5.81672C18.3733 5.9793 18.2709 6.12702 18.1416 6.2514C18.0124 6.37578 17.8589 6.47437 17.6899 6.54151C17.5209 6.60865 17.3399 6.64302 17.1571 6.64264ZM11.129 7.53476C11.8627 7.53476 12.58 7.74413 13.1901 8.1364C13.8002 8.52866 14.2757 9.08621 14.5565 9.73852C14.8372 10.3908 14.9107 11.1086 14.7676 11.8011C14.6244 12.4936 14.2711 13.1297 13.7523 13.629C13.2334 14.1282 12.5724 14.4682 11.8528 14.606C11.1331 14.7437 10.3872 14.673 9.70929 14.4028C9.03141 14.1326 8.452 13.6751 8.04436 13.088C7.63672 12.5009 7.41914 11.8107 7.41914 11.1047C7.42019 10.1582 7.81138 9.25075 8.50689 8.58148C9.2024 7.91221 10.1454 7.53577 11.129 7.53476ZM11.129 5.75005C10.0284 5.75005 8.95259 6.06409 8.0375 6.65246C7.12242 7.24083 6.4092 8.07711 5.98803 9.05554C5.56686 10.034 5.45667 11.1106 5.67138 12.1493C5.88609 13.188 6.41606 14.1421 7.19427 14.891C7.97249 15.6398 8.96399 16.1498 10.0434 16.3564C11.1228 16.563 12.2417 16.457 13.2585 16.0517C14.2752 15.6464 15.1443 14.9601 15.7557 14.0795C16.3672 13.199 16.6935 12.1637 16.6935 11.1047C16.6935 9.68453 16.1073 8.32256 15.0637 7.31838C14.0202 6.31419 12.6048 5.75005 11.129 5.75005Z" fill="white"/>
</svg>
