<svg width="23" height="18" viewBox="0 0 23 18" fill="none" xmlns="http://www.w3.org/2000/svg">
<path d="M22.3539 2.42885C21.5485 2.77856 20.6963 3.00895 19.8243 3.11275C20.7407 2.57653 21.4299 1.72464 21.7625 0.716863C20.8961 1.22312 19.9498 1.57834 18.9641 1.7673C18.5491 1.33261 18.0499 0.986804 17.4969 0.750899C16.9439 0.514994 16.3487 0.393917 15.7475 0.395027C13.3132 0.395027 11.3432 2.33498 11.3432 4.7264C11.3415 5.05904 11.3797 5.39068 11.4569 5.71426C9.7113 5.63248 8.00205 5.18751 6.43844 4.40781C4.87484 3.6281 3.49132 2.53084 2.37639 1.18621C1.98525 1.84513 1.77839 2.59694 1.77744 3.36307C1.77744 4.86497 2.56158 6.19254 3.74562 6.97031C3.04411 6.95367 2.35698 6.76813 1.74255 6.42945V6.48309C1.74255 8.58396 3.26342 10.3317 5.27633 10.7295C4.8978 10.8304 4.50774 10.8815 4.116 10.8815C3.83803 10.882 3.56069 10.855 3.28802 10.801C3.84761 12.522 5.47628 13.7736 7.40554 13.8093C5.83788 15.0166 3.91319 15.6691 1.934 15.6643C1.58269 15.6638 1.2317 15.6429 0.882812 15.6018C2.89625 16.8865 5.23672 17.5661 7.62562 17.5596C15.7381 17.5596 20.1701 10.9575 20.1701 5.2315C20.1701 5.04377 20.1652 4.85603 20.1562 4.67276C21.0164 4.0613 21.7606 3.30143 22.3539 2.42885Z" fill="white"/>
</svg>
