<svg width="23" height="23" viewBox="0 0 23 23" fill="none" xmlns="http://www.w3.org/2000/svg">
<path d="M20.8932 0.39502H2.74127C1.74941 0.39502 0.882812 1.10869 0.882812 2.08889V20.2812C0.882812 21.2667 1.74941 22.145 2.74127 22.145H20.8879C21.8851 22.145 22.6327 21.2609 22.6327 20.2812V2.08889C22.6386 1.10869 21.8851 0.39502 20.8932 0.39502ZM7.6248 18.5247H4.50893V8.83671H7.6248V18.5247ZM6.17465 7.36374H6.15232C5.15512 7.36374 4.50942 6.62142 4.50942 5.6922C4.50942 4.74598 5.17211 4.02114 6.19164 4.02114C7.21117 4.02114 7.83502 4.74064 7.85736 5.6922C7.85687 6.62142 7.21117 7.36374 6.17465 7.36374ZM19.0124 18.5247H15.8966V13.2275C15.8966 11.9584 15.4431 11.0913 14.3158 11.0913C13.4546 11.0913 12.9448 11.6739 12.7181 12.2415C12.6331 12.4454 12.6103 12.7231 12.6103 13.0066V18.5247H9.49443V8.83671H12.6103V10.1849C13.0637 9.53922 13.7721 8.60999 15.4203 8.60999C17.4657 8.60999 19.0129 9.95819 19.0129 12.8648L19.0124 18.5247Z" fill="white"/>
</svg>
