<svg width="261" height="55" viewBox="0 0 261 55" fill="none" xmlns="http://www.w3.org/2000/svg">
<path d="M66.1028 15V43H72.8628V15H66.1028ZM70.3428 20.56H75.8228C77.1828 20.56 78.2495 20.8667 79.0228 21.48C79.7962 22.0933 80.1828 22.9867 80.1828 24.16C80.1828 25.3067 79.7962 26.1867 79.0228 26.8C78.2495 27.4133 77.1828 27.72 75.8228 27.72H70.3428V33.28H75.8228C78.1962 33.28 80.1828 32.92 81.7828 32.2C83.4095 31.4533 84.6362 30.4 85.4628 29.04C86.2895 27.6533 86.7028 26.0267 86.7028 24.16C86.7028 22.24 86.2895 20.6 85.4628 19.24C84.6362 17.88 83.4095 16.84 81.7828 16.12C80.1828 15.3733 78.1962 15 75.8228 15H70.3428V20.56ZM95.6034 24.6H89.6434V43H95.6034V24.6ZM100.923 30.84L103.523 25.68C103.203 25.2 102.737 24.8267 102.123 24.56C101.51 24.2933 100.87 24.16 100.203 24.16C99.1901 24.16 98.2168 24.4933 97.2834 25.16C96.3501 25.8267 95.5901 26.7333 95.0034 27.88C94.4434 29.0267 94.1634 30.3333 94.1634 31.8L95.6034 33.92C95.6034 33.04 95.7234 32.2933 95.9634 31.68C96.2034 31.0667 96.5501 30.6 97.0034 30.28C97.4568 29.96 97.9768 29.8 98.5634 29.8C99.0968 29.8 99.5368 29.8933 99.8834 30.08C100.257 30.2667 100.603 30.52 100.923 30.84ZM105.729 17.68C105.729 18.64 106.075 19.4267 106.769 20.04C107.462 20.6533 108.289 20.96 109.249 20.96C110.235 20.96 111.062 20.6533 111.729 20.04C112.422 19.4267 112.769 18.64 112.769 17.68C112.769 16.72 112.422 15.9467 111.729 15.36C111.062 14.7467 110.235 14.44 109.249 14.44C108.289 14.44 107.462 14.7467 106.769 15.36C106.075 15.9467 105.729 16.72 105.729 17.68ZM106.329 24.6V43H112.169V24.6H106.329ZM145.223 31.16C145.223 29.6667 145.037 28.4 144.663 27.36C144.29 26.32 143.677 25.5333 142.823 25C141.997 24.44 140.863 24.16 139.423 24.16C138.17 24.16 137.05 24.4267 136.063 24.96C135.077 25.4933 134.25 26.24 133.583 27.2C133.21 26.2133 132.597 25.4667 131.743 24.96C130.89 24.4267 129.743 24.16 128.303 24.16C127.05 24.16 125.97 24.44 125.063 25C124.183 25.56 123.49 26.3333 122.983 27.32V24.6H117.143V43H122.983V31.8C122.983 31.0533 123.09 30.4267 123.303 29.92C123.543 29.4133 123.863 29.04 124.263 28.8C124.69 28.5333 125.17 28.4 125.703 28.4C126.53 28.4 127.117 28.6933 127.463 29.28C127.837 29.84 128.023 30.68 128.023 31.8V43H134.103V31.8C134.103 31.0533 134.21 30.4267 134.423 29.92C134.663 29.4133 134.983 29.04 135.383 28.8C135.81 28.5333 136.29 28.4 136.823 28.4C137.65 28.4 138.237 28.6933 138.583 29.28C138.957 29.84 139.143 30.68 139.143 31.8V43H145.223V31.16ZM159.316 43.4C161.663 43.4 163.649 42.9467 165.276 42.04C166.929 41.1333 168.236 39.7733 169.196 37.96L163.796 36.64C163.343 37.44 162.729 38.04 161.956 38.44C161.209 38.84 160.303 39.04 159.236 39.04C158.303 39.04 157.516 38.84 156.876 38.44C156.236 38.0133 155.756 37.4 155.436 36.6C155.116 35.8 154.956 34.84 154.956 33.72C154.983 32.4933 155.143 31.48 155.436 30.68C155.756 29.8533 156.223 29.24 156.836 28.84C157.449 28.44 158.209 28.24 159.116 28.24C159.836 28.24 160.463 28.4 160.996 28.72C161.529 29.04 161.943 29.4933 162.236 30.08C162.529 30.6667 162.676 31.36 162.676 32.16C162.676 32.3467 162.623 32.5867 162.516 32.88C162.436 33.1467 162.329 33.3733 162.196 33.56L163.636 31.72H152.276V35.08H169.076C169.129 34.8933 169.156 34.6667 169.156 34.4C169.156 34.1067 169.156 33.8133 169.156 33.52C169.156 31.5467 168.769 29.8667 167.996 28.48C167.223 27.0933 166.103 26.04 164.636 25.32C163.169 24.5733 161.369 24.2 159.236 24.2C157.103 24.2 155.249 24.5867 153.676 25.36C152.129 26.1333 150.943 27.24 150.116 28.68C149.289 30.12 148.876 31.8267 148.876 33.8C148.876 35.7467 149.303 37.44 150.156 38.88C151.009 40.32 152.209 41.44 153.756 42.24C155.329 43.0133 157.183 43.4 159.316 43.4ZM179.246 29C179.246 27.2667 179.632 25.7867 180.406 24.56C181.179 23.3333 182.192 22.4 183.446 21.76C184.726 21.12 186.126 20.8 187.646 20.8C188.979 20.8 190.152 20.9733 191.166 21.32C192.179 21.64 193.086 22.0933 193.886 22.68C194.686 23.24 195.392 23.84 196.006 24.48V17.2C194.886 16.32 193.659 15.6267 192.326 15.12C190.992 14.6133 189.299 14.36 187.246 14.36C185.006 14.36 182.939 14.7067 181.046 15.4C179.152 16.0933 177.526 17.0933 176.166 18.4C174.806 19.7067 173.752 21.2533 173.006 23.04C172.259 24.8267 171.886 26.8133 171.886 29C171.886 31.1867 172.259 33.1733 173.006 34.96C173.752 36.7467 174.806 38.2933 176.166 39.6C177.526 40.9067 179.152 41.9067 181.046 42.6C182.939 43.2933 185.006 43.64 187.246 43.64C189.299 43.64 190.992 43.3867 192.326 42.88C193.659 42.3733 194.886 41.68 196.006 40.8V33.52C195.392 34.16 194.686 34.76 193.886 35.32C193.086 35.88 192.179 36.3333 191.166 36.68C190.152 37.0267 188.979 37.2 187.646 37.2C186.126 37.2 184.726 36.88 183.446 36.24C182.192 35.6 181.179 34.6667 180.406 33.44C179.632 32.1867 179.246 30.7067 179.246 29ZM208.533 30.32L216.373 43H224.293L215.533 30.32H208.533ZM201.533 15V43H208.293V15H201.533ZM205.773 20.72H211.253C212.159 20.72 212.933 20.8667 213.573 21.16C214.239 21.4533 214.746 21.88 215.093 22.44C215.439 22.9733 215.613 23.6267 215.613 24.4C215.613 25.1733 215.439 25.84 215.093 26.4C214.746 26.9333 214.239 27.3467 213.573 27.64C212.933 27.9067 212.159 28.04 211.253 28.04H205.773V33.28H211.733C214.133 33.28 216.133 32.8933 217.733 32.12C219.333 31.3467 220.546 30.28 221.373 28.92C222.199 27.5333 222.613 25.9467 222.613 24.16C222.613 22.3467 222.199 20.76 221.373 19.4C220.546 18.0133 219.333 16.9333 217.733 16.16C216.133 15.3867 214.133 15 211.733 15H205.773V20.72ZM234.631 28.72L242.271 40.4L249.951 28.72L251.631 43H258.751L254.231 13.6L242.271 30.68L230.351 13.6L225.831 43H232.951L234.631 28.72Z" fill="#303030"/>
<rect x="0.142822" width="55" height="55" rx="9" fill="#F4F4F4"/>
<rect x="14.1428" y="12" width="13" height="34" rx="3" fill="#263238"/>
<g style="mix-blend-mode:darken">
<rect x="19.1428" y="12" width="25" height="25" rx="12.5" fill="#4BE3EB"/>
</g>
<path d="M26.6204 13C26.9461 13.3998 27.1428 13.9188 27.1428 14.4859V36C22.4971 34.3984 19.1428 29.8114 19.1428 24.4026C19.1428 19.1988 22.2477 14.7556 26.6204 13Z" fill="#47CFFF"/>
</svg>
