<svg width="28" height="27" viewBox="0 0 28 27" fill="none" xmlns="http://www.w3.org/2000/svg">
<path d="M17.3143 17.7458L14.5396 25.3762C14.4716 25.5593 14.3492 25.7172 14.1889 25.8287C14.0285 25.9402 13.8379 26 13.6426 26C13.4473 26 13.2566 25.9402 13.0963 25.8287C12.9359 25.7172 12.8136 25.5593 12.7456 25.3762L9.9709 17.7458C9.92243 17.6142 9.84601 17.4948 9.7469 17.3957C9.64779 17.2966 9.52834 17.2201 9.39682 17.1717L1.76642 14.397C1.58331 14.329 1.42539 14.2066 1.31387 14.0463C1.20235 13.886 1.14258 13.6953 1.14258 13.5C1.14258 13.3047 1.20235 13.114 1.31387 12.9537C1.42539 12.7934 1.58331 12.671 1.76642 12.603L9.39682 9.82832C9.52834 9.77986 9.64779 9.70343 9.7469 9.60432C9.84601 9.50521 9.92243 9.38577 9.9709 9.25424L12.7456 1.62384C12.8136 1.44073 12.9359 1.28281 13.0963 1.17129C13.2566 1.05977 13.4473 1 13.6426 1C13.8379 1 14.0285 1.05977 14.1889 1.17129C14.3492 1.28281 14.4716 1.44073 14.5396 1.62384L17.3143 9.25424C17.3627 9.38577 17.4391 9.50521 17.5383 9.60432C17.6374 9.70343 17.7568 9.77986 17.8883 9.82832L25.5187 12.603C25.7018 12.671 25.8598 12.7934 25.9713 12.9537C26.0828 13.114 26.1426 13.3047 26.1426 13.5C26.1426 13.6953 26.0828 13.886 25.9713 14.0463C25.8598 14.2066 25.7018 14.329 25.5187 14.397L17.8883 17.1717C17.7568 17.2201 17.6374 17.2966 17.5383 17.3957C17.4391 17.4948 17.3627 17.6142 17.3143 17.7458V17.7458Z" stroke="white" stroke-width="2" stroke-linecap="round" stroke-linejoin="round"/>
</svg>
