<svg width="68" height="67" viewBox="0 0 68 67" fill="none" xmlns="http://www.w3.org/2000/svg">
<path d="M30.8572 6.96272C31.863 4.44842 35.4221 4.44842 36.428 6.96272L37.529 9.7149C38.2729 11.5745 40.5954 12.1968 42.1694 10.9583L44.499 9.12534C46.6272 7.45081 49.7095 9.23037 49.3234 11.9107L48.9008 14.8447C48.6153 16.8271 50.3155 18.5273 52.2979 18.2417L55.2318 17.8191C57.9122 17.4331 59.6918 20.5154 58.0172 22.6436L56.1843 24.9732C54.9458 26.5472 55.5681 28.8697 57.4277 29.6136L60.1799 30.7146C62.6942 31.7204 62.6942 35.2796 60.1799 36.2854L57.4277 37.3864C55.5681 38.1303 54.9458 40.4528 56.1843 42.0268L58.0172 44.3564C59.6918 46.4846 57.9122 49.5669 55.2318 49.1809L52.2979 48.7583C50.3155 48.4727 48.6153 50.1729 48.9008 52.1553L49.3234 55.0893C49.7095 57.7696 46.6272 59.5492 44.499 57.8747L42.1694 56.0417C40.5954 54.8032 38.2729 55.4255 37.529 57.2851L36.428 60.0373C35.4221 62.5516 31.863 62.5516 30.8572 60.0373L29.7562 57.2851C29.0123 55.4255 26.6898 54.8032 25.1157 56.0417L22.7862 57.8747C20.6579 59.5492 17.5756 57.7696 17.9617 55.0893L18.3843 52.1553C18.6699 50.1729 16.9697 48.4727 14.9873 48.7583L12.0533 49.1809C9.37295 49.5669 7.59339 46.4846 9.26792 44.3564L11.1009 42.0268C12.3394 40.4528 11.7171 38.1303 9.85748 37.3864L7.10529 36.2854C4.591 35.2796 4.591 31.7204 7.10529 30.7146L9.85747 29.6136C11.7171 28.8697 12.3394 26.5472 11.1009 24.9732L9.26792 22.6436C7.59339 20.5154 9.37295 17.4331 12.0533 17.8191L14.9873 18.2417C16.9697 18.5273 18.6699 16.8271 18.3843 14.8447L17.9617 11.9107C17.5756 9.23037 20.6579 7.45081 22.7862 9.12534L25.1157 10.9583C26.6898 12.1968 29.0123 11.5745 29.7562 9.7149L30.8572 6.96272Z" fill="#39DD49"/>
<path d="M44.1426 23L24.1426 43" stroke="#303030" stroke-width="3" stroke-linecap="round" stroke-linejoin="round"/>
<path d="M27.1426 30C29.3517 30 31.1426 28.2091 31.1426 26C31.1426 23.7909 29.3517 22 27.1426 22C24.9334 22 23.1426 23.7909 23.1426 26C23.1426 28.2091 24.9334 30 27.1426 30Z" stroke="#303030" stroke-width="3" stroke-linecap="round" stroke-linejoin="round"/>
<path d="M41.1426 44C43.3517 44 45.1426 42.2091 45.1426 40C45.1426 37.7909 43.3517 36 41.1426 36C38.9334 36 37.1426 37.7909 37.1426 40C37.1426 42.2091 38.9334 44 41.1426 44Z" stroke="#303030" stroke-width="3" stroke-linecap="round" stroke-linejoin="round"/>
</svg>
