<svg width="33" height="33" viewBox="0 0 33 33" fill="none" xmlns="http://www.w3.org/2000/svg">
<path d="M17.6488 23.6802L14.9488 31.0068C14.8688 31.2221 14.7249 31.4077 14.5364 31.5389C14.3479 31.67 14.1237 31.7403 13.8941 31.7403C13.6644 31.7403 13.4403 31.67 13.2517 31.5389C13.0632 31.4077 12.9193 31.2221 12.8394 31.0068L10.1394 23.6802C10.0824 23.5256 9.99254 23.3851 9.876 23.2686C9.75946 23.152 9.61902 23.0622 9.46438 23.0052L2.13781 20.3052C1.92251 20.2253 1.73683 20.0814 1.60571 19.8929C1.47458 19.7043 1.4043 19.4802 1.4043 19.2505C1.4043 19.0209 1.47458 18.7967 1.60571 18.6082C1.73683 18.4196 1.92251 18.2757 2.13781 18.1958L9.46438 15.4958C9.61902 15.4388 9.75946 15.349 9.876 15.2324C9.99254 15.1159 10.0824 14.9755 10.1394 14.8208L12.8394 7.49426C12.9193 7.27896 13.0632 7.09328 13.2517 6.96215C13.4403 6.83103 13.6644 6.76074 13.8941 6.76074C14.1237 6.76074 14.3479 6.83103 14.5364 6.96215C14.7249 7.09328 14.8688 7.27896 14.9488 7.49426L17.6488 14.8208C17.7057 14.9755 17.7956 15.1159 17.9121 15.2324C18.0287 15.349 18.1691 15.4388 18.3238 15.4958L25.6503 18.1958C25.8656 18.2757 26.0513 18.4196 26.1824 18.6082C26.3135 18.7967 26.3838 19.0209 26.3838 19.2505C26.3838 19.4802 26.3135 19.7043 26.1824 19.8929C26.0513 20.0814 25.8656 20.2253 25.6503 20.3052L18.3238 23.0052C18.1691 23.0622 18.0287 23.152 17.9121 23.2686C17.7956 23.3851 17.7057 23.5256 17.6488 23.6802V23.6802Z" stroke="#303030" stroke-width="2" stroke-linecap="round" stroke-linejoin="round"/>
<path d="M22.8926 1.25V8" stroke="#303030" stroke-width="2" stroke-linecap="round" stroke-linejoin="round"/>
<path d="M26.2676 4.625H19.5176" stroke="#303030" stroke-width="2" stroke-linecap="round" stroke-linejoin="round"/>
<path d="M29.6426 9.125V13.625" stroke="#303030" stroke-width="2" stroke-linecap="round" stroke-linejoin="round"/>
<path d="M31.8926 11.375H27.3926" stroke="#303030" stroke-width="2" stroke-linecap="round" stroke-linejoin="round"/>
</svg>
