<svg width="239" height="55" viewBox="0 0 239 55" fill="none" xmlns="http://www.w3.org/2000/svg">
<path d="M66.1028 15V43H72.8628V15H66.1028ZM70.3428 20.56H75.8228C77.1828 20.56 78.2495 20.8667 79.0228 21.48C79.7962 22.0933 80.1828 22.9867 80.1828 24.16C80.1828 25.3067 79.7962 26.1867 79.0228 26.8C78.2495 27.4133 77.1828 27.72 75.8228 27.72H70.3428V33.28H75.8228C78.1962 33.28 80.1828 32.92 81.7828 32.2C83.4095 31.4533 84.6362 30.4 85.4628 29.04C86.2895 27.6533 86.7028 26.0267 86.7028 24.16C86.7028 22.24 86.2895 20.6 85.4628 19.24C84.6362 17.88 83.4095 16.84 81.7828 16.12C80.1828 15.3733 78.1962 15 75.8228 15H70.3428V20.56ZM95.6034 24.6H89.6434V43H95.6034V24.6ZM100.923 30.84L103.523 25.68C103.203 25.2 102.737 24.8267 102.123 24.56C101.51 24.2933 100.87 24.16 100.203 24.16C99.1901 24.16 98.2168 24.4933 97.2834 25.16C96.3501 25.8267 95.5901 26.7333 95.0034 27.88C94.4434 29.0267 94.1634 30.3333 94.1634 31.8L95.6034 33.92C95.6034 33.04 95.7234 32.2933 95.9634 31.68C96.2034 31.0667 96.5501 30.6 97.0034 30.28C97.4568 29.96 97.9768 29.8 98.5634 29.8C99.0968 29.8 99.5368 29.8933 99.8834 30.08C100.257 30.2667 100.603 30.52 100.923 30.84ZM105.729 17.68C105.729 18.64 106.075 19.4267 106.769 20.04C107.462 20.6533 108.289 20.96 109.249 20.96C110.235 20.96 111.062 20.6533 111.729 20.04C112.422 19.4267 112.769 18.64 112.769 17.68C112.769 16.72 112.422 15.9467 111.729 15.36C111.062 14.7467 110.235 14.44 109.249 14.44C108.289 14.44 107.462 14.7467 106.769 15.36C106.075 15.9467 105.729 16.72 105.729 17.68ZM106.329 24.6V43H112.169V24.6H106.329ZM145.223 31.16C145.223 29.6667 145.037 28.4 144.663 27.36C144.29 26.32 143.677 25.5333 142.823 25C141.997 24.44 140.863 24.16 139.423 24.16C138.17 24.16 137.05 24.4267 136.063 24.96C135.077 25.4933 134.25 26.24 133.583 27.2C133.21 26.2133 132.597 25.4667 131.743 24.96C130.89 24.4267 129.743 24.16 128.303 24.16C127.05 24.16 125.97 24.44 125.063 25C124.183 25.56 123.49 26.3333 122.983 27.32V24.6H117.143V43H122.983V31.8C122.983 31.0533 123.09 30.4267 123.303 29.92C123.543 29.4133 123.863 29.04 124.263 28.8C124.69 28.5333 125.17 28.4 125.703 28.4C126.53 28.4 127.117 28.6933 127.463 29.28C127.837 29.84 128.023 30.68 128.023 31.8V43H134.103V31.8C134.103 31.0533 134.21 30.4267 134.423 29.92C134.663 29.4133 134.983 29.04 135.383 28.8C135.81 28.5333 136.29 28.4 136.823 28.4C137.65 28.4 138.237 28.6933 138.583 29.28C138.957 29.84 139.143 30.68 139.143 31.8V43H145.223V31.16ZM156.316 29C156.316 27.2667 156.703 25.7867 157.476 24.56C158.249 23.3333 159.263 22.4 160.516 21.76C161.796 21.12 163.196 20.8 164.716 20.8C166.049 20.8 167.223 20.9733 168.236 21.32C169.249 21.64 170.156 22.0933 170.956 22.68C171.756 23.24 172.463 23.84 173.076 24.48V17.2C171.956 16.32 170.729 15.6267 169.396 15.12C168.063 14.6133 166.369 14.36 164.316 14.36C162.076 14.36 160.009 14.7067 158.116 15.4C156.223 16.0933 154.596 17.0933 153.236 18.4C151.876 19.7067 150.823 21.2533 150.076 23.04C149.329 24.8267 148.956 26.8133 148.956 29C148.956 31.1867 149.329 33.1733 150.076 34.96C150.823 36.7467 151.876 38.2933 153.236 39.6C154.596 40.9067 156.223 41.9067 158.116 42.6C160.009 43.2933 162.076 43.64 164.316 43.64C166.369 43.64 168.063 43.3867 169.396 42.88C170.729 42.3733 171.956 41.68 173.076 40.8V33.52C172.463 34.16 171.756 34.76 170.956 35.32C170.156 35.88 169.249 36.3333 168.236 36.68C167.223 37.0267 166.049 37.2 164.716 37.2C163.196 37.2 161.796 36.88 160.516 36.24C159.263 35.6 158.249 34.6667 157.476 33.44C156.703 32.1867 156.316 30.7067 156.316 29ZM185.603 30.32L193.443 43H201.363L192.603 30.32H185.603ZM178.603 15V43H185.363V15H178.603ZM182.843 20.72H188.323C189.229 20.72 190.003 20.8667 190.643 21.16C191.309 21.4533 191.816 21.88 192.163 22.44C192.509 22.9733 192.683 23.6267 192.683 24.4C192.683 25.1733 192.509 25.84 192.163 26.4C191.816 26.9333 191.309 27.3467 190.643 27.64C190.003 27.9067 189.229 28.04 188.323 28.04H182.843V33.28H188.803C191.203 33.28 193.203 32.8933 194.803 32.12C196.403 31.3467 197.616 30.28 198.443 28.92C199.269 27.5333 199.683 25.9467 199.683 24.16C199.683 22.3467 199.269 20.76 198.443 19.4C197.616 18.0133 196.403 16.9333 194.803 16.16C193.203 15.3867 191.203 15 188.803 15H182.843V20.72ZM211.701 28.72L219.341 40.4L227.021 28.72L228.701 43H235.821L231.301 13.6L219.341 30.68L207.421 13.6L202.901 43H210.021L211.701 28.72Z" fill="white"/>
<rect x="0.142822" width="55" height="55" rx="9" fill="#F4F4F4"/>
<rect x="14.1428" y="12" width="13" height="34" rx="3" fill="#263238"/>
<g style="mix-blend-mode:darken">
<rect x="19.1428" y="12" width="25" height="25" rx="12.5" fill="#4BE3EB"/>
</g>
<path d="M26.6204 13C26.9461 13.3998 27.1428 13.9188 27.1428 14.4859V36C22.4971 34.3984 19.1428 29.8114 19.1428 24.4026C19.1428 19.1988 22.2477 14.7556 26.6204 13Z" fill="#47CFFF"/>
</svg>
