<svg width="29" height="28" viewBox="0 0 29 28" fill="none" xmlns="http://www.w3.org/2000/svg">
<path d="M5.1426 24C5.14111 23.657 5.20993 23.3171 5.34509 23C5.48026 22.6828 5.67908 22.3947 5.93009 22.1522C6.18111 21.9096 6.47935 21.7175 6.8076 21.587C7.13585 21.4564 7.48761 21.3899 7.8426 21.3913H23.1426V4.00002H7.8426C7.48761 3.99858 7.13585 4.06508 6.8076 4.19567C6.47935 4.32626 6.18111 4.51836 5.93009 4.76088C5.67908 5.00341 5.48026 5.29156 5.34509 5.60871C5.20993 5.92586 5.14111 6.26573 5.1426 6.60872V24Z" stroke="#23C0F7" stroke-width="2" stroke-linecap="round" stroke-linejoin="round"/>
<path d="M5.14258 24V25H21.1426" stroke="#23C0F7" stroke-width="2" stroke-linecap="round" stroke-linejoin="round"/>
</svg>
