<svg width="26" height="18" viewBox="0 0 26 18" fill="none" xmlns="http://www.w3.org/2000/svg">
<path d="M18.1426 2.00002H22.802C22.9763 1.99872 23.1469 2.05772 23.2913 2.16927C23.4358 2.28081 23.5473 2.43969 23.6113 2.62502L25.1426 7" stroke="#A76FD2" stroke-width="1.5" stroke-linecap="round" stroke-linejoin="round"/>
<path d="M1.14258 9H18.1426" stroke="#A76FD2" stroke-width="1.5" stroke-linecap="round" stroke-linejoin="round"/>
<path d="M19.6426 17C21.0233 17 22.1426 15.8807 22.1426 14.5C22.1426 13.1193 21.0233 12 19.6426 12C18.2619 12 17.1426 13.1193 17.1426 14.5C17.1426 15.8807 18.2619 17 19.6426 17Z" stroke="#A76FD2" stroke-width="1.5" stroke-linecap="round" stroke-linejoin="round"/>
<path d="M6.64258 17C8.02329 17 9.14258 15.8807 9.14258 14.5C9.14258 13.1193 8.02329 12 6.64258 12C5.26187 12 4.14258 13.1193 4.14258 14.5C4.14258 15.8807 5.26187 17 6.64258 17Z" stroke="#A76FD2" stroke-width="1.5" stroke-linecap="round" stroke-linejoin="round"/>
<path d="M17.1426 14H9.14258" stroke="#A76FD2" stroke-width="1.5" stroke-linecap="round" stroke-linejoin="round"/>
<path d="M4.11758 14H1.99258C1.76714 14 1.55094 13.9144 1.39154 13.762C1.23213 13.6097 1.14258 13.403 1.14258 13.1875V1.8125C1.14258 1.59701 1.23213 1.39035 1.39154 1.23798C1.55094 1.0856 1.76714 1 1.99258 1H18.1426V11.8875" stroke="#A76FD2" stroke-width="1.5" stroke-linecap="round" stroke-linejoin="round"/>
<path d="M18.1426 7H25.1426V13.2222C25.1426 13.4285 25.0504 13.6263 24.8863 13.7722C24.7222 13.9181 24.4996 14 24.2676 14H22.0801" stroke="#A76FD2" stroke-width="1.5" stroke-linecap="round" stroke-linejoin="round"/>
</svg>
