<svg width="29" height="28" viewBox="0 0 29 28" fill="none" xmlns="http://www.w3.org/2000/svg">
<path d="M14.6426 21C18.2324 21 21.1426 18.0899 21.1426 14.5C21.1426 10.9101 18.2324 8 14.6426 8C11.0527 8 8.14258 10.9101 8.14258 14.5C8.14258 18.0899 11.0527 21 14.6426 21Z" stroke="#2FCF3F" stroke-width="2" stroke-linecap="round" stroke-linejoin="round"/>
<path d="M21.3547 5.85558C21.6828 6.1577 21.9935 6.46846 22.287 6.78785L25.8219 7.29283C26.3978 8.29309 26.8418 9.36375 27.1426 10.4781L24.9932 13.3396C24.9932 13.3396 25.032 14.2201 24.9932 14.6604L27.1426 17.5219C26.8431 18.6367 26.3991 19.7076 25.8219 20.7072L22.287 21.2122C22.287 21.2122 21.6784 21.8466 21.3547 22.1444L20.8497 25.6793C19.8495 26.2552 18.7788 26.6992 17.6645 27L14.8029 24.8506C14.3636 24.8895 13.9216 24.8895 13.4822 24.8506L10.6207 27C9.50585 26.7006 8.43501 26.2566 7.43541 25.6793L6.93043 22.1444C6.61104 21.8423 6.30028 21.5315 5.99816 21.2122L2.4633 20.7072C1.88734 19.7069 1.4434 18.6362 1.14258 17.5219L3.29198 14.6604C3.29198 14.6604 3.25314 13.7799 3.29198 13.3396L1.14258 10.4781C1.44201 9.36328 1.88601 8.29243 2.4633 7.29283L5.99816 6.78785C6.30028 6.46846 6.61104 6.1577 6.93043 5.85558L7.43541 2.32072C8.43566 1.74476 9.50633 1.30082 10.6207 1L13.4822 3.1494C13.9216 3.11055 14.3636 3.11055 14.8029 3.1494L17.6645 1C18.7793 1.29943 19.8501 1.74344 20.8497 2.32072L21.3547 5.85558Z" stroke="#2FCF3F" stroke-width="2" stroke-linecap="round" stroke-linejoin="round"/>
</svg>
