<svg width="23" height="22" viewBox="0 0 23 22" fill="none" xmlns="http://www.w3.org/2000/svg">
<path d="M13.8699 20.1169V14.8188C13.8699 14.5846 13.7741 14.36 13.6036 14.1944C13.4331 14.0288 13.2019 13.9358 12.9608 13.9358H9.3244C9.08329 13.9358 8.85206 14.0288 8.68157 14.1944C8.51108 14.36 8.41531 14.5846 8.41531 14.8188V20.1169C8.41531 20.3511 8.31953 20.5757 8.14904 20.7412C7.97855 20.9068 7.74732 20.9999 7.50621 20.9999H2.05167C1.81056 20.9999 1.57933 20.9068 1.40884 20.7412C1.23836 20.5757 1.14258 20.3511 1.14258 20.1169V9.90701C1.14461 9.7848 1.1718 9.66423 1.22254 9.55239C1.27329 9.44055 1.34655 9.3397 1.43803 9.25578L10.5289 1.23139C10.6965 1.08247 10.9154 0.999878 11.1426 0.999878C11.3697 0.999878 11.5886 1.08247 11.7562 1.23139L20.8471 9.25578C20.9386 9.3397 21.0119 9.44055 21.0626 9.55239C21.1134 9.66423 21.1405 9.7848 21.1426 9.90701V20.1169C21.1426 20.3511 21.0468 20.5757 20.8763 20.7412C20.7058 20.9068 20.4746 20.9999 20.2335 20.9999H14.7789C14.5378 20.9999 14.3066 20.9068 14.1361 20.7412C13.9656 20.5757 13.8699 20.3511 13.8699 20.1169Z" stroke="#38CEC5" stroke-width="2" stroke-linecap="round" stroke-linejoin="round"/>
</svg>
