<svg width="27" height="22" viewBox="0 0 27 22" fill="none" xmlns="http://www.w3.org/2000/svg">
<path d="M24.1426 1H2.14258C1.59029 1 1.14258 1.44772 1.14258 2V20C1.14258 20.5523 1.59029 21 2.14258 21H24.1426C24.6949 21 25.1426 20.5523 25.1426 20V2C25.1426 1.44772 24.6949 1 24.1426 1Z" stroke="#FF4F4F" stroke-width="2" stroke-linecap="round" stroke-linejoin="round"/>
<path d="M5.64258 6.75C6.33293 6.75 6.89258 6.19036 6.89258 5.5C6.89258 4.80964 6.33293 4.25 5.64258 4.25C4.95222 4.25 4.39258 4.80964 4.39258 5.5C4.39258 6.19036 4.95222 6.75 5.64258 6.75Z" fill="#FF4F4F"/>
<path d="M9.14258 6.75C9.83293 6.75 10.3926 6.19036 10.3926 5.5C10.3926 4.80964 9.83293 4.25 9.14258 4.25C8.45222 4.25 7.89258 4.80964 7.89258 5.5C7.89258 6.19036 8.45222 6.75 9.14258 6.75Z" fill="#FF4F4F"/>
</svg>
