<svg width="27" height="26" viewBox="0 0 27 26" fill="none" xmlns="http://www.w3.org/2000/svg">
<path d="M2.99972 11H8.14258V21H2.99972C2.77239 21 2.55437 20.919 2.39363 20.7747C2.23288 20.6304 2.14258 20.4348 2.14258 20.2308V11.7692C2.14258 11.5652 2.23288 11.3696 2.39363 11.2253C2.55437 11.081 2.77239 11 2.99972 11V11Z" stroke="#BC7964" stroke-width="2" stroke-linecap="round" stroke-linejoin="round"/>
<path d="M8.14258 10.2609L12.1469 2C12.9965 2 13.8113 2.34814 14.412 2.96782C15.0128 3.58751 15.3503 4.42798 15.3503 5.30435V7.78261H21.5469C21.7741 7.78203 21.9987 7.83159 22.2057 7.92796C22.4127 8.02433 22.5973 8.16529 22.7471 8.34135C22.8969 8.51741 23.0085 8.7245 23.0743 8.94872C23.1401 9.17294 23.1586 9.40909 23.1286 9.6413L21.9273 19.5543C21.8787 19.9523 21.6915 20.3184 21.4004 20.5844C21.1094 20.8504 20.7345 20.9981 20.3457 21H8.14258" stroke="#BC7964" stroke-width="2" stroke-linecap="round" stroke-linejoin="round"/>
</svg>
