<svg width="21" height="26" viewBox="0 0 21 26" fill="none" xmlns="http://www.w3.org/2000/svg">
<path d="M5.14258 25H16.1426" stroke="#FFB545" stroke-width="2" stroke-linecap="round" stroke-linejoin="round"/>
<path d="M10.1426 21V15" stroke="#FFB545" stroke-width="2" stroke-linecap="round" stroke-linejoin="round"/>
<path d="M6.14258 11L10.1426 15L14.1426 11" stroke="#FFB545" stroke-width="2" stroke-linecap="round" stroke-linejoin="round"/>
<path d="M4.59649 17.2505C3.52501 16.4091 2.6572 15.3324 2.0588 14.102C1.46041 12.8717 1.14712 11.5199 1.14267 10.1491C1.12017 5.21792 5.0465 1.11618 9.9291 1.00255C11.8188 0.957313 13.6746 1.51408 15.2333 2.5939C16.7921 3.67372 17.9746 5.22177 18.6133 7.01851C19.2519 8.81524 19.3143 10.7694 18.7914 12.604C18.2686 14.4385 17.1872 16.0602 15.7005 17.2391C15.3721 17.4955 15.106 17.8243 14.9227 18.2005C14.7395 18.5766 14.6437 18.9901 14.6429 19.4093V20.091C14.6429 20.3321 14.5481 20.5633 14.3793 20.7338C14.2106 20.9042 13.9816 21 13.7429 21H6.54278C6.30408 21 6.07516 20.9042 5.90637 20.7338C5.73759 20.5633 5.64276 20.3321 5.64276 20.091V19.4093C5.63995 18.9932 5.54444 18.5831 5.36332 18.2094C5.1822 17.8357 4.92011 17.508 4.59649 17.2505V17.2505Z" stroke="#FFB545" stroke-width="2" stroke-linecap="round" stroke-linejoin="round"/>
</svg>
