<svg width="31" height="30" viewBox="0 0 31 30" fill="none" xmlns="http://www.w3.org/2000/svg">
<path d="M5.24835 24.8942C4.00989 23.6558 4.83104 21.0577 4.19835 19.5365C3.56566 18.0154 1.14258 16.6827 1.14258 15C1.14258 13.3173 3.53873 12.0385 4.19835 10.4635C4.85796 8.88846 4.00989 6.34423 5.24835 5.10577C6.48681 3.86731 9.08489 4.68846 10.606 4.05577C12.1272 3.42308 13.4599 1 15.1426 1C16.8253 1 18.1041 3.39615 19.6791 4.05577C21.2541 4.71538 23.7983 3.86731 25.0368 5.10577C26.2753 6.34423 25.4541 8.94231 26.0868 10.4635C26.7195 11.9846 29.1426 13.3173 29.1426 15C29.1426 16.6827 26.7464 17.9615 26.0868 19.5365C25.4272 21.1115 26.2753 23.6558 25.0368 24.8942C23.7983 26.1327 21.2003 25.3115 19.6791 25.9442C18.158 26.5769 16.8253 29 15.1426 29C13.4599 29 12.181 26.6038 10.606 25.9442C9.03104 25.2846 6.48681 26.1327 5.24835 24.8942Z" stroke="#928EF2" stroke-width="2" stroke-linecap="round" stroke-linejoin="round"/>
<path d="M19.1426 11L11.1426 19" stroke="#928EF2" stroke-width="2" stroke-linecap="round" stroke-linejoin="round"/>
<path d="M12.1426 13C12.6949 13 13.1426 12.5523 13.1426 12C13.1426 11.4477 12.6949 11 12.1426 11C11.5903 11 11.1426 11.4477 11.1426 12C11.1426 12.5523 11.5903 13 12.1426 13Z" stroke="#928EF2" stroke-width="2" stroke-linecap="round" stroke-linejoin="round"/>
<path d="M18.1426 19C18.6949 19 19.1426 18.5523 19.1426 18C19.1426 17.4477 18.6949 17 18.1426 17C17.5903 17 17.1426 17.4477 17.1426 18C17.1426 18.5523 17.5903 19 18.1426 19Z" stroke="#928EF2" stroke-width="2" stroke-linecap="round" stroke-linejoin="round"/>
</svg>
