<svg width="31" height="30" viewBox="0 0 31 30" fill="none" xmlns="http://www.w3.org/2000/svg">
<path d="M26.1426 5.93232V22.0677C26.1427 22.2119 26.1099 22.3543 26.0467 22.4834C25.9834 22.6126 25.8915 22.7251 25.7782 22.812C25.6649 22.8989 25.5332 22.9579 25.3936 22.9843C25.2541 23.0107 25.1103 23.0038 24.9738 22.9641L4.80716 16.9919C4.61553 16.9362 4.44698 16.8186 4.32706 16.6568C4.20713 16.4951 4.14237 16.298 4.14258 16.0955V11.9045C4.14237 11.702 4.20713 11.5049 4.32706 11.3432C4.44698 11.1814 4.61553 11.0638 4.80716 11.0081L24.9738 5.03591C25.1103 4.99624 25.2541 4.98933 25.3936 5.01572C25.5332 5.04212 25.6649 5.1011 25.7782 5.18802C25.8915 5.27494 25.9834 5.38741 26.0467 5.51657C26.1099 5.64574 26.1427 5.78806 26.1426 5.93232Z" stroke="#FF80AD" stroke-width="2" stroke-linecap="round" stroke-linejoin="round"/>
<path d="M9.14258 18.8766V23.0748C9.14258 23.3202 9.23037 23.5555 9.38666 23.729C9.54294 23.9025 9.7549 24 9.97591 24H13.3092C13.5303 24 13.7422 23.9025 13.8985 23.729C14.0548 23.5555 14.1426 23.3202 14.1426 23.0748V9" stroke="#FF80AD" stroke-width="2" stroke-linecap="round" stroke-linejoin="round"/>
</svg>
