<svg width="31" height="30" viewBox="0 0 31 30" fill="none" xmlns="http://www.w3.org/2000/svg">
<path d="M13.9132 2.0584C14.4305 0.466231 16.683 0.466231 17.2003 2.0584L19.4982 9.13033C19.7295 9.84237 20.393 10.3245 21.1417 10.3245L28.5776 10.3245C30.2517 10.3245 30.9478 12.4667 29.5934 13.4507L23.5776 17.8214C22.9719 18.2615 22.7185 19.0415 22.9498 19.7535L25.2477 26.8255C25.765 28.4177 23.9427 29.7416 22.5883 28.7576L16.5726 24.3869C15.9669 23.9469 15.1467 23.9469 14.541 24.3869L8.52524 28.7576C7.17086 29.7416 5.34856 28.4177 5.86589 26.8255L8.1637 19.7535C8.39505 19.0415 8.1416 18.2615 7.53591 17.8214L1.52016 13.4507C0.165783 12.4667 0.861842 10.3245 2.53595 10.3245L9.97182 10.3245C10.7205 10.3245 11.384 9.84237 11.6154 9.13033L13.9132 2.0584Z" fill="#FFB545"/>
</svg>
