<svg width="95" height="44" viewBox="0 0 95 44" fill="none" xmlns="http://www.w3.org/2000/svg">
<path d="M40.6381 2.2V41.8C40.6381 42.3835 40.4013 42.9431 39.9797 43.3556C39.5582 43.7682 38.9865 44 38.3903 44C37.7942 44 37.2225 43.7682 36.8009 43.3556C36.3794 42.9431 36.1426 42.3835 36.1426 41.8V2.2C36.1426 1.61652 36.3794 1.05695 36.8009 0.644365C37.2225 0.231785 37.7942 0 38.3903 0C38.9865 0 39.5582 0.231785 39.9797 0.644365C40.4013 1.05695 40.6381 1.61652 40.6381 2.2ZM64.2396 17.1875L58.6202 18.975V13.2C58.6202 12.6165 58.3833 12.0569 57.9618 11.6444C57.5403 11.2318 56.9685 11 56.3724 11C55.7763 11 55.2045 11.2318 54.783 11.6444C54.3615 12.0569 54.1246 12.6165 54.1246 13.2V18.975L48.5053 17.1875C48.2269 17.0937 47.9321 17.0558 47.6385 17.0759C47.3448 17.0961 47.0584 17.1739 46.7961 17.3048C46.5339 17.4357 46.3013 17.617 46.1122 17.8378C45.9231 18.0586 45.7814 18.3144 45.6956 18.59C45.5994 18.8643 45.5603 19.1546 45.5805 19.4439C45.6008 19.7332 45.6801 20.0156 45.8136 20.2745C45.9472 20.5334 46.1323 20.7634 46.3581 20.9511C46.584 21.1389 46.8459 21.2804 47.1285 21.3675L52.7479 23.155L49.2639 27.83C49.0897 28.0645 48.9646 28.3303 48.8957 28.6123C48.8268 28.8942 48.8156 29.1867 48.8626 29.4729C48.9096 29.7591 49.0139 30.0334 49.1695 30.2801C49.3252 30.5267 49.5291 30.7408 49.7696 30.91C50.2559 31.2472 50.8579 31.3842 51.4464 31.2917C52.0348 31.1991 52.5626 30.8844 52.9165 30.415L56.3724 25.74L59.8283 30.415C60.1822 30.8844 60.71 31.1991 61.2985 31.2917C61.8869 31.3842 62.4889 31.2472 62.9752 30.91C63.2157 30.7408 63.4196 30.5267 63.5753 30.2801C63.7309 30.0334 63.8353 29.7591 63.8823 29.4729C63.9293 29.1867 63.918 28.8942 63.8491 28.6123C63.7803 28.3303 63.6551 28.0645 63.4809 27.83L59.9969 23.155L65.6163 21.3675C65.8989 21.2804 66.1609 21.1389 66.3867 20.9511C66.6125 20.7634 66.7976 20.5334 66.9312 20.2745C67.0647 20.0156 67.144 19.7332 67.1643 19.4439C67.1845 19.1546 67.1454 18.8643 67.0493 18.59C66.9634 18.3144 66.8217 18.0586 66.6326 17.8378C66.4435 17.617 66.2109 17.4357 65.9487 17.3048C65.6865 17.1739 65.4 17.0961 65.1063 17.0759C64.8127 17.0558 64.5179 17.0937 64.2396 17.1875ZM94.0224 18.59C93.9365 18.3144 93.7948 18.0586 93.6057 17.8378C93.4166 17.617 93.184 17.4357 92.9218 17.3048C92.6596 17.1739 92.3731 17.0961 92.0794 17.0759C91.7858 17.0558 91.491 17.0937 91.2127 17.1875L85.5933 18.975V13.2C85.5933 12.6165 85.3565 12.0569 84.9349 11.6444C84.5134 11.2318 83.9417 11 83.3455 11C82.7494 11 82.1776 11.2318 81.7561 11.6444C81.3346 12.0569 81.0978 12.6165 81.0978 13.2V18.975L75.4784 17.1875C75.2 17.0937 74.9052 17.0558 74.6116 17.0759C74.318 17.0961 74.0315 17.1739 73.7692 17.3048C73.507 17.4357 73.2744 17.617 73.0853 17.8378C72.8962 18.0586 72.7545 18.3144 72.6687 18.59C72.5725 18.8643 72.5334 19.1546 72.5536 19.4439C72.5739 19.7332 72.6532 20.0156 72.7867 20.2745C72.9203 20.5334 73.1054 20.7634 73.3312 20.9511C73.5571 21.1389 73.819 21.2804 74.1016 21.3675L79.721 23.155L76.237 27.83C76.0628 28.0645 75.9377 28.3303 75.8688 28.6123C75.7999 28.8942 75.7887 29.1867 75.8357 29.4729C75.8827 29.7591 75.987 30.0334 76.1427 30.2801C76.2983 30.5267 76.5022 30.7408 76.7427 30.91C77.229 31.2472 77.831 31.3842 78.4195 31.2917C79.0079 31.1991 79.5357 30.8844 79.8896 30.415L83.3455 25.74L86.8014 30.415C87.1553 30.8844 87.6831 31.1991 88.2716 31.2917C88.86 31.3842 89.462 31.2472 89.9483 30.91C90.1888 30.7408 90.3927 30.5267 90.5484 30.2801C90.704 30.0334 90.8084 29.7591 90.8554 29.4729C90.9024 29.1867 90.8911 28.8942 90.8222 28.6123C90.7534 28.3303 90.6282 28.0645 90.454 27.83L86.97 23.155L92.5894 21.3675C92.872 21.2804 93.134 21.1389 93.3598 20.9511C93.5856 20.7634 93.7708 20.5334 93.9043 20.2745C94.0378 20.0156 94.1171 19.7332 94.1374 19.4439C94.1576 19.1546 94.1185 18.8643 94.0224 18.59Z" fill="#47CFFF"/>
<path d="M25.8092 7H2.47591C1.85707 7 1.26358 7.25323 0.825996 7.70399C0.388411 8.15475 0.142578 8.76611 0.142578 9.40357V18.2217C0.142578 31.6517 11.1967 36.1133 13.4134 36.8644C13.8837 37.0452 14.4015 37.0452 14.8717 36.8644C17.0884 36.1133 28.1426 31.6517 28.1426 18.2217V9.40357C28.1426 8.76611 27.8967 8.15475 27.4592 7.70399C27.0216 7.25323 26.4281 7 25.8092 7ZM20.0488 20.7004L16.0238 22.0524L18.5176 25.5826C18.6076 25.7095 18.6723 25.8535 18.7078 26.0064C18.7434 26.1592 18.7491 26.3178 18.7247 26.4729C18.7003 26.628 18.6462 26.7766 18.5656 26.91C18.4849 27.0434 18.3794 27.159 18.2551 27.2501C18.0592 27.407 17.8178 27.4916 17.5697 27.4905C17.3852 27.4887 17.2037 27.4431 17.0393 27.3571C16.8748 27.2711 16.7319 27.1471 16.6217 26.9947L14.1426 23.4645L11.6634 26.9947C11.5532 27.1471 11.4103 27.2711 11.2459 27.3571C11.0814 27.4431 10.8999 27.4887 10.7155 27.4905C10.4673 27.4916 10.226 27.407 10.0301 27.2501C9.90575 27.159 9.80021 27.0434 9.71959 26.91C9.63898 26.7766 9.58489 26.628 9.56047 26.4729C9.53605 26.3178 9.54179 26.1592 9.57734 26.0064C9.61289 25.8535 9.67755 25.7095 9.76758 25.5826L12.2613 22.0524L8.23633 20.7004C7.94307 20.6037 7.69878 20.3916 7.55673 20.1102C7.41468 19.8288 7.38638 19.5009 7.47799 19.1981C7.57495 18.8949 7.7837 18.6431 8.05923 18.497C8.33476 18.3509 8.655 18.3221 8.95091 18.417L12.9759 19.769V15.4125C12.9759 15.0938 13.0988 14.7881 13.3176 14.5627C13.5364 14.3373 13.8332 14.2107 14.1426 14.2107C14.452 14.2107 14.7487 14.3373 14.9675 14.5627C15.1863 14.7881 15.3092 15.0938 15.3092 15.4125V19.769L19.3342 18.417C19.6302 18.3221 19.9504 18.3509 20.2259 18.497C20.5015 18.6431 20.7102 18.8949 20.8072 19.1981C20.8988 19.5009 20.8705 19.8288 20.7284 20.1102C20.5864 20.3916 20.3421 20.6037 20.0488 20.7004Z" fill="#47CFFF"/>
</svg>
