<svg width="67" height="37" viewBox="0 0 67 37" fill="none" xmlns="http://www.w3.org/2000/svg">
<path d="M49.6426 24.7567C49.6426 25.4434 50.203 26.0105 50.8802 25.8972C52.4103 25.6412 53.8345 24.9147 54.9459 23.8033C56.3524 22.3968 57.1426 20.4891 57.1426 18.5C57.1426 16.5109 56.3524 14.6032 54.9459 13.1967C53.8345 12.0853 52.4103 11.3588 50.8802 11.1028C50.203 10.9895 49.6426 11.5566 49.6426 12.2433C49.6426 12.9299 50.2076 13.4714 50.8732 13.6399C51.7418 13.8599 52.5433 14.3107 53.1876 14.955C54.1278 15.8952 54.656 17.1704 54.656 18.5C54.656 19.8296 54.1278 21.1048 53.1876 22.045C52.5433 22.6893 51.7418 23.1401 50.8732 23.3601C50.2076 23.5286 49.6426 24.0701 49.6426 24.7567Z" fill="#49E4EB"/>
<path d="M51.6426 31.1279C51.6426 32.1618 52.4842 33.0125 53.5096 32.8794C56.6664 32.4696 59.6202 31.0285 61.8956 28.753C64.6149 26.0338 66.1426 22.3456 66.1426 18.5C66.1426 14.6544 64.6149 10.9662 61.8956 8.24695C59.6202 5.97152 56.6664 4.53045 53.5096 4.12064C52.4842 3.98753 51.6426 4.83815 51.6426 5.87207C51.6426 6.90599 52.487 7.72756 53.5053 7.90662C55.6662 8.2866 57.6756 9.32192 59.2481 10.8945C61.2652 12.9116 62.3984 15.6474 62.3984 18.5C62.3984 21.3526 61.2652 24.0884 59.2481 26.1055C57.6756 27.6781 55.6662 28.7134 53.5053 29.0934C52.487 29.2724 51.6426 30.094 51.6426 31.1279Z" fill="#49E4EB"/>
<path d="M2.57526 11.0888L19.9425 5.98763H19.9637L39.8059 0.13946C40.3112 -0.0119044 40.8448 -0.0405333 41.3632 0.0559114C41.8816 0.152356 42.37 0.37114 42.7886 0.694396C43.2127 1.00895 43.5566 1.4207 43.792 1.8957C44.0273 2.3707 44.1475 2.89535 44.1424 3.42639V33.0087C44.1424 33.9108 43.7888 34.7762 43.1586 35.416C42.5284 36.0558 41.673 36.4181 40.779 36.4237C40.4504 36.4245 40.1232 36.3815 39.8059 36.2957L22.1425 31.0878V33.585C22.1425 34.4907 21.7859 35.3593 21.1512 35.9998C20.5164 36.6402 19.6556 37 18.7579 37H11.9887C11.091 37 10.2302 36.6402 9.59542 35.9998C8.96068 35.3593 8.60409 34.4907 8.60409 33.585V27.1179L2.57526 25.3463C1.8734 25.1352 1.25769 24.7014 0.819477 24.1093C0.381264 23.5172 0.14389 22.7984 0.142578 22.0594V14.3757C0.14389 13.6367 0.381264 12.9179 0.819477 12.3258C1.25769 11.7337 1.8734 11.2999 2.57526 11.0888ZM11.9887 33.585H18.7579V30.106L11.9887 28.0997V33.585ZM3.52718 22.0594L10.8041 24.1938L18.7579 26.5416V9.89352L3.52718 14.3757V22.0594Z" fill="#49E4EB"/>
</svg>
